<svg width="217" height="284" viewBox="0 0 217 284" fill="none" xmlns="http://www.w3.org/2000/svg">
<path d="M215.549 82.1988C215.272 81.5337 214.852 80.896 214.28 80.2947C213.877 79.8664 213.398 79.4565 212.843 79.0738C212.709 78.9827 172.307 53.6816 172.307 53.6816C172.307 53.545 172.307 53.4083 172.307 53.2807C172.307 52.6339 172.172 51.987 171.912 51.3492C171.634 50.6841 171.214 50.0464 170.643 49.445C170.239 49.0168 169.76 48.6068 169.206 48.2242C169.071 48.1331 96.8043 2.87906 96.8043 2.87906C95.2413 1.90419 93.3674 1.2482 91.3842 0.929317C89.4011 0.610434 87.3171 0.610434 85.334 0.929317C83.3592 1.2482 81.4769 1.90419 79.9307 2.87906L8.05864 48.3062C6.37801 49.3722 5.33602 51.3219 5.33602 53.4356L5.20157 111.654C5.20157 113.568 6.15113 115.344 7.6805 116.31L46.5366 140.864L3.87388 167.723C2.3361 168.689 1.38654 170.466 1.37814 172.388L1 230.188C1 232.447 2.10081 234.525 3.89909 235.663C17.7391 244.401 76.393 281.4 76.393 281.4C77.956 282.384 79.8299 283.031 81.8131 283.359C83.7962 283.687 85.8802 283.678 87.8633 283.359C89.8381 283.04 91.7204 282.384 93.2665 281.409L166.046 235.354C167.609 234.361 168.567 232.547 168.559 230.589L168.382 175.495C168.382 175.495 213.415 147.05 213.843 146.631C213.953 146.531 214.053 146.422 214.154 146.312C214.726 145.711 215.146 145.064 215.415 144.399C215.524 144.135 215.608 143.862 215.675 143.597C215.726 143.388 215.751 143.187 215.776 142.978C215.793 142.823 215.793 142.686 215.793 142.541V142.522C215.793 141.429 215.944 84.6679 215.944 84.1213C215.944 83.4744 215.81 82.8275 215.549 82.1897V82.1988Z" fill="black"/>
<path d="M168.567 175.313C168.567 175.313 168.424 229.55 168.424 230.643V230.662C168.424 230.807 168.424 230.944 168.407 231.099C168.391 231.308 168.357 231.509 168.307 231.718C168.239 231.983 168.155 232.256 168.046 232.511C167.777 233.185 167.349 233.832 166.786 234.433C166.685 234.543 166.584 234.652 166.475 234.752C166.046 235.171 165.534 235.554 164.962 235.919" stroke="#FF9100" stroke-width="0.5" stroke-miterlimit="10"/>
<path d="M93.5944 222.562L93.4431 280.972C91.8969 281.947 90.023 282.603 88.0399 282.922C86.0567 283.241 83.9728 283.241 81.9896 282.922C80.0065 282.603 78.1326 281.947 76.5696 280.963L76.7208 222.553C78.2754 223.528 80.1577 224.184 82.1409 224.503C84.124 224.821 86.208 224.821 88.1911 224.503C90.1659 224.184 92.0482 223.528 93.5944 222.553V222.562Z" stroke="#FF9100" stroke-width="0.5" stroke-miterlimit="10"/>
<path d="M93.5944 222.562L93.4431 280.972C91.8969 281.947 90.023 282.603 88.0399 282.922C86.0567 283.241 83.9728 283.241 81.9896 282.922C80.0065 282.603 78.1326 281.947 76.5696 280.963L76.7208 222.553C78.2754 223.528 80.1577 224.184 82.1409 224.503C84.124 224.821 86.208 224.821 88.1911 224.503C90.1659 224.184 92.0482 223.528 93.5944 222.553V222.562Z" stroke="#FF9100" stroke-width="0.5" stroke-miterlimit="10" stroke-linecap="round"/>
<path d="M88.1995 224.512L88.0398 282.922" stroke="#FF9100" stroke-width="0.5" stroke-miterlimit="10" stroke-linecap="round"/>
<path d="M82.1494 224.512L81.9897 282.922" stroke="#FF9100" stroke-width="0.5" stroke-miterlimit="10" stroke-linecap="round"/>
<path d="M76.578 280.963L4.59668 235.909L4.74794 177.499L42.7133 201.261L76.7293 222.562" stroke="#FF9100" stroke-width="0.5" stroke-miterlimit="10" stroke-linecap="round"/>
<path d="M4.59636 235.909C4.4535 235.818 4.30225 235.727 4.1762 235.627C3.62159 235.244 3.14261 234.834 2.73926 234.406C2.22667 233.869 1.84013 233.304 1.57123 232.721C1.52921 232.648 1.504 232.575 1.47039 232.502V232.502V232.484C1.20149 231.855 1.07544 231.208 1.07544 230.561L1.2267 172.16C1.2267 172.78 1.35274 173.408 1.59643 174.01C2.10062 175.267 3.12581 176.442 4.66358 177.426C4.68879 177.445 4.714 177.463 4.74761 177.481" stroke="#FF9100" stroke-width="0.5" stroke-miterlimit="10" stroke-linecap="round"/>
<path d="M46.7721 140.718L4.68915 166.912C4.11773 167.277 3.60514 167.668 3.17658 168.078C3.06734 168.179 2.9665 168.288 2.86566 168.397C2.32786 168.971 1.91611 169.591 1.64721 170.22C1.6304 170.247 1.6136 170.274 1.59679 170.311H1.60519V170.329C1.52956 170.502 1.46234 170.684 1.42032 170.857C1.37831 171.012 1.34469 171.149 1.31108 171.295C1.28587 171.449 1.26066 171.595 1.25226 171.741C1.23545 171.887 1.22705 172.023 1.22705 172.169V172.187C1.22705 172.807 1.3531 173.436 1.59679 174.037C2.10098 175.294 3.12616 176.47 4.66394 177.454C4.68915 177.472 4.71436 177.49 4.74797 177.508L42.7134 201.27L76.7293 222.562C78.2839 223.537 80.1662 224.193 82.1493 224.512C84.1325 224.83 86.2165 224.83 88.1996 224.512C90.1743 224.193 92.0566 223.537 93.6028 222.562L126.938 201.552" stroke="#FF9100" stroke-width="0.5" stroke-miterlimit="10" stroke-linecap="round"/>
<path d="M9.15088 180.214V238.716" stroke="#FF9100" stroke-width="0.5" stroke-miterlimit="10"/>
<path d="M14.2686 183.421V241.904" stroke="#FF9100" stroke-width="0.5" stroke-miterlimit="10" stroke-linecap="round"/>
<path d="M19.3774 186.674V245.175" stroke="#FF9100" stroke-width="0.5" stroke-miterlimit="10"/>
<path d="M24.4951 189.881V248.373" stroke="#FF9100" stroke-width="0.5" stroke-miterlimit="10" stroke-linecap="round"/>
<path d="M29.6128 193.079V251.58" stroke="#FF9100" stroke-width="0.5" stroke-miterlimit="10"/>
<path d="M34.7302 196.304V254.796" stroke="#FF9100" stroke-width="0.5" stroke-miterlimit="10" stroke-linecap="round"/>
<path d="M39.8394 199.466V257.967" stroke="#FF9100" stroke-width="0.5" stroke-miterlimit="10"/>
<path d="M44.9568 202.691V261.183" stroke="#FF9100" stroke-width="0.5" stroke-miterlimit="10" stroke-linecap="round"/>
<path d="M50.0742 205.889V264.39" stroke="#FF9100" stroke-width="0.5" stroke-miterlimit="10"/>
<path d="M55.1921 209.041V267.533" stroke="#FF9100" stroke-width="0.5" stroke-miterlimit="10" stroke-linecap="round"/>
<path d="M60.301 212.267V270.768" stroke="#FF9100" stroke-width="0.5" stroke-miterlimit="10"/>
<path d="M70.5359 218.681V277.182" stroke="#FF9100" stroke-width="0.5" stroke-miterlimit="10"/>
<path d="M65.4187 215.492V273.984" stroke="#FF9100" stroke-width="0.5" stroke-miterlimit="10" stroke-linecap="round"/>
<path d="M160.601 180.26V238.761" stroke="#FF9100" stroke-width="0.5" stroke-miterlimit="10"/>
<path d="M155.483 183.558V241.95" stroke="#FF9100" stroke-width="0.5" stroke-miterlimit="10" stroke-linecap="round"/>
<path d="M150.366 186.71V245.212" stroke="#FF9100" stroke-width="0.5" stroke-miterlimit="10"/>
<path d="M145.248 190.009V248.41" stroke="#FF9100" stroke-width="0.5" stroke-miterlimit="10" stroke-linecap="round"/>
<path d="M140.139 193.124V251.626" stroke="#FF9100" stroke-width="0.5" stroke-miterlimit="10"/>
<path d="M135.022 196.45V254.842" stroke="#FF9100" stroke-width="0.5" stroke-miterlimit="10" stroke-linecap="round"/>
<path d="M129.904 199.502V258.003" stroke="#FF9100" stroke-width="0.5" stroke-miterlimit="10"/>
<path d="M124.787 202.9V261.22" stroke="#FF9100" stroke-width="0.5" stroke-miterlimit="10" stroke-linecap="round"/>
<path d="M119.678 206.126V264.436" stroke="#FF9100" stroke-width="0.5" stroke-miterlimit="10"/>
<path d="M114.56 209.351V267.579" stroke="#FF9100" stroke-width="0.5" stroke-miterlimit="10" stroke-linecap="round"/>
<path d="M109.442 212.567V270.813" stroke="#FF9100" stroke-width="0.5" stroke-miterlimit="10"/>
<path d="M99.2158 219.018V277.227" stroke="#FF9100" stroke-width="0.5" stroke-miterlimit="10"/>
<path d="M104.325 215.792V274.03" stroke="#FF9100" stroke-width="0.5" stroke-miterlimit="10" stroke-linecap="round"/>
<path d="M85.124 283.168V224.758" stroke="#FF9100" stroke-width="0.5" stroke-miterlimit="10" stroke-linecap="round"/>
<path d="M92.5437 281.482V223.154" stroke="#FF9100" stroke-width="0.5" stroke-miterlimit="10" stroke-linecap="round"/>
<path d="M91.0815 282.12V223.774" stroke="#FF9100" stroke-width="0.5" stroke-miterlimit="10" stroke-linecap="round"/>
<path d="M89.6279 282.585V224.22" stroke="#FF9100" stroke-width="0.5" stroke-miterlimit="10" stroke-linecap="round"/>
<path d="M80.813 282.685V224.238" stroke="#FF9100" stroke-width="0.5" stroke-miterlimit="10" stroke-linecap="round"/>
<path d="M79.3594 282.275V223.81" stroke="#FF9100" stroke-width="0.5" stroke-miterlimit="10" stroke-linecap="round"/>
<path d="M77.8972 281.683V223.209" stroke="#FF9100" stroke-width="0.5" stroke-miterlimit="10" stroke-linecap="round"/>
<path d="M216.129 83.9482C216.129 84.4948 216.129 85.0506 216.129 85.6064C216.129 85.6064 215.986 141.256 215.986 142.34C215.986 142.34 215.986 142.641 215.969 142.796C215.953 143.005 215.919 143.206 215.869 143.415C215.801 143.679 215.717 143.953 215.608 144.208C215.339 144.882 214.911 145.529 214.348 146.13C214.247 146.24 214.146 146.349 214.037 146.449C213.608 146.868 213.096 147.251 212.524 147.615L212.675 89.2052C213.112 88.9319 213.499 88.6494 213.852 88.3488C214.087 88.1483 214.297 87.9388 214.499 87.7292C214.692 87.5288 214.86 87.3192 215.011 87.1097C215.188 86.8819 215.339 86.645 215.474 86.4081C215.575 86.235 215.659 86.0528 215.726 85.8797C215.726 85.8797 215.768 85.7977 215.785 85.7521C215.801 85.7248 215.81 85.6793 215.827 85.6428C215.869 85.5517 215.894 85.4606 215.919 85.3695C216.062 84.9048 216.138 84.4311 216.138 83.9573L216.129 83.9482Z" stroke="#FF9100" stroke-width="0.5" stroke-miterlimit="10"/>
<path d="M212.516 147.615L126.93 201.552L93.5944 222.562L93.4431 280.972L164.954 235.909L165.021 177.545" stroke="#FF9100" stroke-width="0.5" stroke-miterlimit="10" stroke-linecap="round"/>
<path d="M97.6277 161.664L174.483 113.258L212.574 89.2598L212.667 89.2051" stroke="#FF9100" stroke-width="0.5" stroke-miterlimit="10" stroke-linecap="round"/>
<path d="M141.148 134.268L140.997 192.678C139.45 193.653 137.576 194.309 135.593 194.628C133.61 194.947 131.526 194.947 129.543 194.628C127.56 194.309 125.686 193.653 124.123 192.669L124.274 144.928" stroke="#FF9100" stroke-width="0.5" stroke-miterlimit="10"/>
<path d="M135.753 137.648L135.602 194.628" stroke="#FF9100" stroke-width="0.5" stroke-miterlimit="10" stroke-linecap="round"/>
<path d="M129.703 141.465L129.552 194.628" stroke="#FF9100" stroke-width="0.5" stroke-miterlimit="10" stroke-linecap="round"/>
<path d="M124.131 192.678L52.1497 147.615" stroke="#FF9100" stroke-width="0.5" stroke-miterlimit="10" stroke-linecap="round"/>
<path d="M52.1836 144.226L52.1584 147.615C52.0155 147.524 51.8643 147.433 51.7382 147.333C51.1836 146.95 50.7046 146.54 50.3013 146.112C49.7887 145.574 49.4021 145.01 49.1332 144.427C49.0912 144.354 49.066 144.281 49.0324 144.208V144.19C48.7635 143.561 48.6375 142.914 48.6375 142.267V141.857" stroke="#FF9100" stroke-width="0.5" stroke-miterlimit="10" stroke-linecap="round"/>
<path d="M172.475 53.4994L212.6 78.6273C212.742 78.7185 212.894 78.8096 213.02 78.9098C213.574 79.2924 214.053 79.7024 214.457 80.1306C215.028 80.732 215.448 81.3697 215.726 82.0257C215.986 82.6635 216.121 83.3195 216.121 83.9572C216.121 84.431 216.045 84.9048 215.902 85.3694C215.877 85.4514 215.843 85.5517 215.81 85.6428C215.793 85.6792 215.784 85.7248 215.768 85.7521C215.751 85.7977 215.734 85.8341 215.709 85.8705C215.633 86.0528 215.549 86.235 215.457 86.4081C215.322 86.645 215.171 86.8819 214.995 87.1096C214.843 87.3192 214.667 87.5287 214.482 87.7292C214.28 87.9478 214.062 88.1483 213.835 88.3487C213.482 88.6494 213.095 88.9318 212.658 89.2051L212.574 89.2598L174.483 113.258" stroke="#FF9100" stroke-width="0.5" stroke-miterlimit="10" stroke-linecap="round"/>
<path d="M56.7043 146.85V150.431" stroke="#FF9100" stroke-width="0.5" stroke-miterlimit="10"/>
<path d="M61.822 150.431V153.619" stroke="#FF9100" stroke-width="0.5" stroke-miterlimit="10" stroke-linecap="round"/>
<path d="M66.9395 153.228V156.881" stroke="#FF9100" stroke-width="0.5" stroke-miterlimit="10"/>
<path d="M72.0486 156.453V160.079" stroke="#FF9100" stroke-width="0.5" stroke-miterlimit="10" stroke-linecap="round"/>
<path d="M77.1663 159.642V163.295" stroke="#FF9100" stroke-width="0.5" stroke-miterlimit="10"/>
<path d="M82.2834 162.758V166.511" stroke="#FF9100" stroke-width="0.5" stroke-miterlimit="10" stroke-linecap="round"/>
<path d="M87.4011 164.033V169.673" stroke="#FF9100" stroke-width="0.5" stroke-miterlimit="10"/>
<path d="M92.5103 163.778V172.889" stroke="#FF9100" stroke-width="0.5" stroke-miterlimit="10" stroke-linecap="round"/>
<path d="M97.6277 161.664V176.096" stroke="#FF9100" stroke-width="0.5" stroke-miterlimit="10"/>
<path d="M102.745 158.448V179.239" stroke="#FF9100" stroke-width="0.5" stroke-miterlimit="10" stroke-linecap="round"/>
<path d="M107.863 155.141V182.483" stroke="#FF9100" stroke-width="0.5" stroke-miterlimit="10"/>
<path d="M118.089 148.69V188.888" stroke="#FF9100" stroke-width="0.5" stroke-miterlimit="10"/>
<path d="M112.972 151.916V185.699" stroke="#FF9100" stroke-width="0.5" stroke-miterlimit="10" stroke-linecap="round"/>
<path d="M208.154 91.9658V150.467" stroke="#FF9100" stroke-width="0.5" stroke-miterlimit="10"/>
<path d="M203.037 95.273V153.656" stroke="#FF9100" stroke-width="0.5" stroke-miterlimit="10" stroke-linecap="round"/>
<path d="M197.919 98.4254V156.927" stroke="#FF9100" stroke-width="0.5" stroke-miterlimit="10"/>
<path d="M192.81 101.714V160.125" stroke="#FF9100" stroke-width="0.5" stroke-miterlimit="10" stroke-linecap="round"/>
<path d="M187.693 104.83V163.332" stroke="#FF9100" stroke-width="0.5" stroke-miterlimit="10"/>
<path d="M182.575 108.165V166.548" stroke="#FF9100" stroke-width="0.5" stroke-miterlimit="10" stroke-linecap="round"/>
<path d="M177.458 111.217V169.718" stroke="#FF9100" stroke-width="0.5" stroke-miterlimit="10"/>
<path d="M172.348 114.606V172.935" stroke="#FF9100" stroke-width="0.5" stroke-miterlimit="10" stroke-linecap="round"/>
<path d="M167.231 117.795V176.142" stroke="#FF9100" stroke-width="0.5" stroke-miterlimit="10"/>
<path d="M162.114 121.057V179.285" stroke="#FF9100" stroke-width="0.5" stroke-miterlimit="10" stroke-linecap="round"/>
<path d="M156.996 124.282V182.519" stroke="#FF9100" stroke-width="0.5" stroke-miterlimit="10"/>
<path d="M146.769 130.705V188.933" stroke="#FF9100" stroke-width="0.5" stroke-miterlimit="10"/>
<path d="M151.887 127.508V185.735" stroke="#FF9100" stroke-width="0.5" stroke-miterlimit="10" stroke-linecap="round"/>
<path d="M132.686 194.874V139.58" stroke="#FF9100" stroke-width="0.5" stroke-miterlimit="10" stroke-linecap="round"/>
<path d="M140.097 193.197V134.86" stroke="#FF9100" stroke-width="0.5" stroke-miterlimit="10" stroke-linecap="round"/>
<path d="M138.635 193.835V135.698" stroke="#FF9100" stroke-width="0.5" stroke-miterlimit="10" stroke-linecap="round"/>
<path d="M137.181 194.3V136.764" stroke="#FF9100" stroke-width="0.5" stroke-miterlimit="10" stroke-linecap="round"/>
<path d="M128.366 194.4V142.295" stroke="#FF9100" stroke-width="0.5" stroke-miterlimit="10" stroke-linecap="round"/>
<path d="M126.913 193.981V143.215" stroke="#FF9100" stroke-width="0.5" stroke-miterlimit="10" stroke-linecap="round"/>
<path d="M125.451 193.398V144.135" stroke="#FF9100" stroke-width="0.5" stroke-miterlimit="10" stroke-linecap="round"/>
<path d="M172.491 53.1076C172.491 53.6543 172.491 54.21 172.491 54.7658C172.491 54.7658 172.349 110.415 172.349 111.5V111.518C172.349 111.664 172.349 111.8 172.332 111.955C172.315 112.165 172.281 112.365 172.231 112.575C172.164 112.839 172.08 113.112 171.97 113.367C171.702 114.042 171.273 114.688 170.71 115.29C170.609 115.399 170.508 115.508 170.399 115.609C169.97 116.028 169.458 116.41 168.886 116.775L168.912 106.243L169.038 58.3646" stroke="#FF9100" stroke-width="0.5" stroke-miterlimit="10"/>
<path d="M97.5184 103.418L97.3672 161.828C95.821 162.803 93.9471 163.459 91.9639 163.778C89.9808 164.097 87.8968 164.097 85.9137 163.778C83.9305 163.459 82.0566 162.803 80.4937 161.819L80.6449 103.409" stroke="#FF9100" stroke-width="0.5" stroke-miterlimit="10"/>
<path d="M80.4937 161.828L80.6449 103.418" stroke="#FF9100" stroke-width="0.5" stroke-miterlimit="10" stroke-linecap="round"/>
<path d="M92.1154 105.368L91.9641 163.778" stroke="#FF9100" stroke-width="0.5" stroke-miterlimit="10" stroke-linecap="round"/>
<path d="M86.0651 105.368L85.9138 163.778" stroke="#FF9100" stroke-width="0.5" stroke-miterlimit="10" stroke-linecap="round"/>
<path d="M80.4937 161.828L8.52075 116.775L8.67201 58.3647" stroke="#FF9100" stroke-width="0.5" stroke-miterlimit="10" stroke-linecap="round"/>
<path d="M8.52092 116.775C8.37806 116.684 8.22681 116.593 8.10076 116.492C7.54615 116.11 7.06717 115.7 6.66382 115.272C6.15123 114.734 5.76469 114.169 5.49579 113.586C5.45377 113.513 5.42856 113.44 5.39495 113.367V113.349C5.12605 112.72 5 112.074 5 111.427L5.15126 53.0256" stroke="#FF9100" stroke-width="0.5" stroke-miterlimit="10" stroke-linecap="round"/>
<path d="M13.0754 61.0797V119.581" stroke="#FF9100" stroke-width="0.5" stroke-miterlimit="10"/>
<path d="M84.9724 10.6142V10.596" stroke="#FF9100" stroke-width="0.5" stroke-miterlimit="10" stroke-linecap="round"/>
<path d="M50.7971 33.9483V33.9382" stroke="#FF9100" stroke-width="0.5" stroke-miterlimit="10" stroke-linecap="round"/>
<path d="M58.7883 33.9483V33.9382" stroke="#FF9100" stroke-width="0.5" stroke-miterlimit="10" stroke-linecap="round"/>
<path d="M120.518 33.9483V33.9382" stroke="#FF9100" stroke-width="0.5" stroke-miterlimit="10" stroke-linecap="round"/>
<path d="M128.518 33.9483V33.9382" stroke="#FF9100" stroke-width="0.5" stroke-miterlimit="10" stroke-linecap="round"/>
<path d="M18.1843 64.2776V122.77" stroke="#FF9100" stroke-width="0.5" stroke-miterlimit="10" stroke-linecap="round"/>
<path d="M23.3018 67.5303V126.032" stroke="#FF9100" stroke-width="0.5" stroke-miterlimit="10"/>
<path d="M28.4194 70.7372V129.229" stroke="#FF9100" stroke-width="0.5" stroke-miterlimit="10" stroke-linecap="round"/>
<path d="M33.5369 73.9443V132.446" stroke="#FF9100" stroke-width="0.5" stroke-miterlimit="10"/>
<path d="M38.646 77.1696V135.662" stroke="#FF9100" stroke-width="0.5" stroke-miterlimit="10" stroke-linecap="round"/>
<path d="M43.7634 80.3219V138.823" stroke="#FF9100" stroke-width="0.5" stroke-miterlimit="10"/>
<path d="M48.8811 83.5473V142.039" stroke="#FF9100" stroke-width="0.5" stroke-miterlimit="10" stroke-linecap="round"/>
<path d="M53.9988 86.7452V145.247" stroke="#FF9100" stroke-width="0.5" stroke-miterlimit="10"/>
<path d="M59.1077 89.9067V148.399" stroke="#FF9100" stroke-width="0.5" stroke-miterlimit="10" stroke-linecap="round"/>
<path d="M64.2253 93.1319V151.633" stroke="#FF9100" stroke-width="0.5" stroke-miterlimit="10"/>
<path d="M74.4604 99.537V158.038" stroke="#FF9100" stroke-width="0.5" stroke-miterlimit="10"/>
<path d="M69.3428 96.3572V154.849" stroke="#FF9100" stroke-width="0.5" stroke-miterlimit="10" stroke-linecap="round"/>
<path d="M164.517 61.1161V119.627" stroke="#FF9100" stroke-width="0.5" stroke-miterlimit="10"/>
<path d="M159.399 64.4234V122.742" stroke="#FF9100" stroke-width="0.5" stroke-miterlimit="10" stroke-linecap="round"/>
<path d="M154.29 67.5757V126.077" stroke="#FF9100" stroke-width="0.5" stroke-miterlimit="10"/>
<path d="M149.173 70.9742V129.184" stroke="#FF9100" stroke-width="0.5" stroke-miterlimit="10" stroke-linecap="round"/>
<path d="M144.055 73.9899V132.491" stroke="#FF9100" stroke-width="0.5" stroke-miterlimit="10"/>
<path d="M138.938 77.3154V135.516" stroke="#FF9100" stroke-width="0.5" stroke-miterlimit="10" stroke-linecap="round"/>
<path d="M133.828 80.3676V138.869" stroke="#FF9100" stroke-width="0.5" stroke-miterlimit="10"/>
<path d="M128.711 83.7568V142.085" stroke="#FF9100" stroke-width="0.5" stroke-miterlimit="10" stroke-linecap="round"/>
<path d="M123.594 86.7907V145.292" stroke="#FF9100" stroke-width="0.5" stroke-miterlimit="10"/>
<path d="M118.476 90.2073V148.435" stroke="#FF9100" stroke-width="0.5" stroke-miterlimit="10" stroke-linecap="round"/>
<path d="M113.367 93.4326V151.679" stroke="#FF9100" stroke-width="0.5" stroke-miterlimit="10"/>
<path d="M103.132 99.8832V158.084" stroke="#FF9100" stroke-width="0.5" stroke-miterlimit="10"/>
<path d="M108.249 96.6579V154.886" stroke="#FF9100" stroke-width="0.5" stroke-miterlimit="10" stroke-linecap="round"/>
<path d="M89.0483 164.033V105.614" stroke="#FF9100" stroke-width="0.5" stroke-miterlimit="10" stroke-linecap="round"/>
<path d="M96.468 162.348V104.01" stroke="#FF9100" stroke-width="0.5" stroke-miterlimit="10" stroke-linecap="round"/>
<path d="M95.0059 162.985V104.639" stroke="#FF9100" stroke-width="0.5" stroke-miterlimit="10" stroke-linecap="round"/>
<path d="M93.552 163.45V105.076" stroke="#FF9100" stroke-width="0.5" stroke-miterlimit="10" stroke-linecap="round"/>
<path d="M84.7371 163.55V105.104" stroke="#FF9100" stroke-width="0.5" stroke-miterlimit="10" stroke-linecap="round"/>
<path d="M83.2749 163.131V104.675" stroke="#FF9100" stroke-width="0.5" stroke-miterlimit="10" stroke-linecap="round"/>
<path d="M81.8213 162.548V104.065" stroke="#FF9100" stroke-width="0.5" stroke-miterlimit="10" stroke-linecap="round"/>
<path d="M62.1078 169.636L62.0658 182.975C60.0238 184.26 57.5617 185.125 54.9399 185.535C52.3266 185.972 49.5535 185.972 46.9401 185.535C44.3184 185.107 41.8394 184.26 39.7891 182.975L39.8311 169.636" stroke="#FF9100" stroke-width="0.5" stroke-miterlimit="10"/>
<path d="M54.9738 172.206L54.9399 185.544" stroke="#FF9100" stroke-width="0.5" stroke-miterlimit="10" stroke-linecap="round"/>
<path d="M46.974 172.206L46.9402 185.544" stroke="#FF9100" stroke-width="0.5" stroke-miterlimit="10" stroke-linecap="round"/>
<path d="M62.1077 169.636L62.0657 182.975C63.0152 182.374 63.8135 181.718 64.469 181.025C64.6034 180.879 64.7211 180.752 64.8387 180.615C65.4017 179.941 65.9143 179.012 66.3513 177.9C66.5866 177.308 66.637 176.889 66.637 176.023C66.637 169.682 66.6706 162.931 66.6706 162.931" stroke="#FF9100" stroke-width="0.5" stroke-miterlimit="10" stroke-linecap="round"/>
<path d="M35.1842 162.603C35.1758 166.593 35.1674 171.914 35.1506 175.923C35.1506 176.743 35.3103 177.572 35.6296 178.374C35.9909 179.294 36.5624 180.16 37.3439 180.989C37.7472 181.417 38.201 181.818 38.7052 182.21C39.0497 182.474 39.411 182.72 39.7892 182.966" stroke="#FF9100" stroke-width="0.5" stroke-miterlimit="10" stroke-linecap="round"/>
<path d="M50.9154 172.525C59.6078 172.525 66.6544 168.099 66.6544 162.639C66.6544 157.18 59.6078 152.754 50.9154 152.754C42.2229 152.754 35.1763 157.18 35.1763 162.639C35.1763 168.099 42.2229 172.525 50.9154 172.525Z" stroke="#FF9100" stroke-width="0.5" stroke-miterlimit="10" stroke-linecap="round"/>
<path d="M50.7214 170.374C58.2026 170.374 64.2673 166.871 64.2673 162.548C64.2673 158.226 58.2026 154.722 50.7214 154.722C43.2402 154.722 37.1755 158.226 37.1755 162.548C37.1755 166.871 43.2402 170.374 50.7214 170.374Z" stroke="#FF9100" stroke-width="0.5" stroke-miterlimit="10" stroke-linecap="round"/>
<path d="M50.7047 168.015C55.9211 168.015 60.1498 165.567 60.1498 162.548C60.1498 159.529 55.9211 157.082 50.7047 157.082C45.4883 157.082 41.2595 159.529 41.2595 162.548C41.2595 165.567 45.4883 168.015 50.7047 168.015Z" stroke="#FF9100" stroke-width="0.5" stroke-miterlimit="10" stroke-linecap="round"/>
<path d="M50.7046 165.701C53.7166 165.701 56.1583 164.289 56.1583 162.548C56.1583 160.807 53.7166 159.396 50.7046 159.396C47.6927 159.396 45.251 160.807 45.251 162.548C45.251 164.289 47.6927 165.701 50.7046 165.701Z" stroke="#FF9100" stroke-width="0.5" stroke-miterlimit="10" stroke-linecap="round"/>
<path d="M96.3253 189.207L96.2833 202.545C94.2414 203.83 91.7792 204.695 89.1575 205.105C86.5441 205.543 83.771 205.543 81.1577 205.105C78.5359 204.677 76.057 203.83 74.0066 202.545L74.0486 189.207" stroke="#FF9100" stroke-width="0.5" stroke-miterlimit="10"/>
<path d="M89.1911 191.785L89.1572 205.124" stroke="#FF9100" stroke-width="0.5" stroke-miterlimit="10" stroke-linecap="round"/>
<path d="M81.2 191.776L81.1577 205.114" stroke="#FF9100" stroke-width="0.5" stroke-miterlimit="10" stroke-linecap="round"/>
<path d="M96.3252 189.207L96.2832 202.545C97.2328 201.944 98.0311 201.288 98.6865 200.595C98.821 200.45 98.9386 200.322 99.0562 200.185C99.6192 199.511 100.132 198.582 100.569 197.47C100.804 196.878 100.855 196.459 100.855 195.594C100.855 194.728 100.888 182.501 100.888 182.501" stroke="#FF9100" stroke-width="0.5" stroke-miterlimit="10" stroke-linecap="round"/>
<path d="M69.4015 182.182C69.3931 186.173 69.3847 191.494 69.3679 195.502C69.3679 196.322 69.5276 197.152 69.8469 197.953C70.2082 198.874 70.7796 199.739 71.5611 200.568C71.9645 200.996 72.4183 201.397 72.9225 201.789C73.267 202.053 73.6283 202.299 74.0065 202.545" stroke="#FF9100" stroke-width="0.5" stroke-miterlimit="10" stroke-linecap="round"/>
<path d="M85.1324 192.104C93.8249 192.104 100.871 187.678 100.871 182.219C100.871 176.759 93.8249 172.333 85.1324 172.333C76.4399 172.333 69.3933 176.759 69.3933 182.219C69.3933 187.678 76.4399 192.104 85.1324 192.104Z" stroke="#FF9100" stroke-width="0.5" stroke-miterlimit="10" stroke-linecap="round"/>
<path d="M84.9389 189.954C92.4201 189.954 98.4848 186.45 98.4848 182.128C98.4848 177.805 92.4201 174.301 84.9389 174.301C77.4578 174.301 71.3931 177.805 71.3931 182.128C71.3931 186.45 77.4578 189.954 84.9389 189.954Z" stroke="#FF9100" stroke-width="0.5" stroke-miterlimit="10" stroke-linecap="round"/>
<path d="M84.9305 187.594C90.1469 187.594 94.3756 185.147 94.3756 182.128C94.3756 179.109 90.1469 176.661 84.9305 176.661C79.7141 176.661 75.4854 179.109 75.4854 182.128C75.4854 185.147 79.7141 187.594 84.9305 187.594Z" stroke="#FF9100" stroke-width="0.5" stroke-miterlimit="10" stroke-linecap="round"/>
<path d="M84.9307 185.28C87.9427 185.28 90.3843 183.869 90.3843 182.128C90.3843 180.387 87.9427 178.975 84.9307 178.975C81.9187 178.975 79.4771 180.387 79.4771 182.128C79.4771 183.869 81.9187 185.28 84.9307 185.28Z" stroke="#FF9100" stroke-width="0.5" stroke-miterlimit="10" stroke-linecap="round"/>
<path d="M100.241 27.1596L100.199 40.498C98.1571 41.7827 95.695 42.6482 93.0732 43.0582C90.4599 43.4955 87.6868 43.4955 85.0734 43.0582C82.4517 42.63 79.9727 41.7827 77.9224 40.498L77.9644 27.1596" stroke="#FF9100" stroke-width="0.5" stroke-miterlimit="10"/>
<path d="M93.1154 29.7289L93.0815 43.0673" stroke="#FF9100" stroke-width="0.5" stroke-miterlimit="10" stroke-linecap="round"/>
<path d="M85.1159 29.7289L85.082 43.0673" stroke="#FF9100" stroke-width="0.5" stroke-miterlimit="10" stroke-linecap="round"/>
<path d="M100.241 27.1597L100.199 40.4981C101.149 39.8967 101.947 39.2408 102.603 38.5483C102.737 38.4026 102.855 38.275 102.972 38.1383C103.535 37.4641 104.048 36.5348 104.485 35.4233C104.72 34.8311 104.771 34.412 104.771 33.5464C104.771 27.2052 104.804 20.454 104.804 20.454" stroke="#FF9100" stroke-width="0.5" stroke-miterlimit="10" stroke-linecap="round"/>
<path d="M73.3173 20.1351C73.3089 24.1257 73.3005 29.4465 73.2837 33.4553C73.2837 34.2753 73.4434 35.1044 73.7627 35.9062C74.124 36.8264 74.6954 37.6919 75.4769 38.521C75.8803 38.9492 76.334 39.3501 76.8382 39.7419C77.1828 40.0061 77.5441 40.2521 77.9222 40.4981" stroke="#FF9100" stroke-width="0.5" stroke-miterlimit="10" stroke-linecap="round"/>
<path d="M89.0567 30.0569C97.7492 30.0569 104.796 25.6311 104.796 20.1716C104.796 14.712 97.7492 10.2862 89.0567 10.2862C80.3643 10.2862 73.3176 14.712 73.3176 20.1716C73.3176 25.6311 80.3643 30.0569 89.0567 30.0569Z" stroke="#FF9100" stroke-width="0.5" stroke-miterlimit="10" stroke-linecap="round"/>
<path d="M88.8635 27.9067C96.3447 27.9067 102.409 24.4028 102.409 20.0804C102.409 15.7581 96.3447 12.2542 88.8635 12.2542C81.3823 12.2542 75.3176 15.7581 75.3176 20.0804C75.3176 24.4028 81.3823 27.9067 88.8635 27.9067Z" stroke="#FF9100" stroke-width="0.5" stroke-miterlimit="10" stroke-linecap="round"/>
<path d="M88.8467 25.547C94.0631 25.547 98.2919 23.0996 98.2919 20.0805C98.2919 17.0614 94.0631 14.6139 88.8467 14.6139C83.6303 14.6139 79.4016 17.0614 79.4016 20.0805C79.4016 23.0996 83.6303 25.547 88.8467 25.547Z" stroke="#FF9100" stroke-width="0.5" stroke-miterlimit="10" stroke-linecap="round"/>
<path d="M88.8467 23.2237C91.8587 23.2237 94.3004 21.8123 94.3004 20.0713C94.3004 18.3303 91.8587 16.9189 88.8467 16.9189C85.8347 16.9189 83.3931 18.3303 83.3931 20.0713C83.3931 21.8123 85.8347 23.2237 88.8467 23.2237Z" stroke="#FF9100" stroke-width="0.5" stroke-miterlimit="10" stroke-linecap="round"/>
<path d="M65.9982 50.4654L65.9562 63.8038C63.9142 65.0884 61.4521 65.954 58.8303 66.364C56.2169 66.8013 53.4439 66.8013 50.8305 66.364C48.2087 65.9358 45.7298 65.0884 43.6794 63.8038L43.7215 50.4654" stroke="#FF9100" stroke-width="0.5" stroke-miterlimit="10"/>
<path d="M58.8727 53.0347L58.8389 66.3731" stroke="#FF9100" stroke-width="0.5" stroke-miterlimit="10" stroke-linecap="round"/>
<path d="M50.8729 53.0347L50.8391 66.3731" stroke="#FF9100" stroke-width="0.5" stroke-miterlimit="10" stroke-linecap="round"/>
<path d="M65.9983 50.4654L65.9563 63.8038C66.9059 63.2025 67.7042 62.5465 68.3596 61.8541C68.494 61.7083 68.6117 61.5808 68.7293 61.4441C69.2924 60.7699 69.8049 59.8406 70.2419 58.7291C70.4772 58.1368 70.5276 57.7177 70.5276 56.8522C70.5276 50.511 70.5612 43.7598 70.5612 43.7598" stroke="#FF9100" stroke-width="0.5" stroke-miterlimit="10" stroke-linecap="round"/>
<path d="M39.0746 43.4409C39.0662 47.4315 39.0578 52.7523 39.041 56.7611C39.041 57.5811 39.2007 58.4102 39.52 59.2119C39.8813 60.1321 40.4527 60.9977 41.2342 61.8268C41.6376 62.255 42.0914 62.6559 42.5955 63.0476C42.9401 63.3119 43.3014 63.5579 43.6796 63.8039" stroke="#FF9100" stroke-width="0.5" stroke-miterlimit="10" stroke-linecap="round"/>
<path d="M54.8138 53.3536C63.5063 53.3536 70.5529 48.9278 70.5529 43.4682C70.5529 38.0087 63.5063 33.5829 54.8138 33.5829C46.1213 33.5829 39.0747 38.0087 39.0747 43.4682C39.0747 48.9278 46.1213 53.3536 54.8138 53.3536Z" stroke="#FF9100" stroke-width="0.5" stroke-miterlimit="10" stroke-linecap="round"/>
<path d="M54.6206 51.2033C62.1018 51.2033 68.1664 47.6994 68.1664 43.377C68.1664 39.0547 62.1018 35.5508 54.6206 35.5508C47.1394 35.5508 41.0747 39.0547 41.0747 43.377C41.0747 47.6994 47.1394 51.2033 54.6206 51.2033Z" stroke="#FF9100" stroke-width="0.5" stroke-miterlimit="10" stroke-linecap="round"/>
<path d="M54.6038 48.8437C59.8202 48.8437 64.049 46.3962 64.049 43.3771C64.049 40.358 59.8202 37.9106 54.6038 37.9106C49.3874 37.9106 45.1587 40.358 45.1587 43.3771C45.1587 46.3962 49.3874 48.8437 54.6038 48.8437Z" stroke="#FF9100" stroke-width="0.5" stroke-miterlimit="10" stroke-linecap="round"/>
<path d="M54.6038 46.5295C57.6158 46.5295 60.0574 45.1182 60.0574 43.3771C60.0574 41.6361 57.6158 40.2248 54.6038 40.2248C51.5918 40.2248 49.1501 41.6361 49.1501 43.3771C49.1501 45.1182 51.5918 46.5295 54.6038 46.5295Z" stroke="#FF9100" stroke-width="0.5" stroke-miterlimit="10" stroke-linecap="round"/>
<path d="M100.283 69.9082L100.241 83.2466C98.1991 84.5313 95.737 85.3968 93.1152 85.8068C90.5018 86.2441 87.7288 86.2441 85.1154 85.8068C82.4937 85.3786 80.0147 84.5313 77.9644 83.2466L78.0064 69.9082" stroke="#FF9100" stroke-width="0.5" stroke-miterlimit="10"/>
<path d="M93.1573 72.4865L93.115 85.8249" stroke="#FF9100" stroke-width="0.5" stroke-miterlimit="10" stroke-linecap="round"/>
<path d="M85.1578 72.4865L85.124 85.8158" stroke="#FF9100" stroke-width="0.5" stroke-miterlimit="10" stroke-linecap="round"/>
<path d="M100.283 69.9082L100.241 83.2466C101.191 82.6453 101.989 81.9893 102.645 81.2969C102.779 81.1511 102.897 81.0235 103.014 80.8869C103.577 80.2127 104.09 79.2833 104.527 78.1718C104.762 77.5796 104.813 77.1605 104.813 76.295C104.813 69.9537 104.846 63.2025 104.846 63.2025" stroke="#FF9100" stroke-width="0.5" stroke-miterlimit="10" stroke-linecap="round"/>
<path d="M73.3595 62.8836C73.3511 66.8742 73.3427 72.195 73.3259 76.2038C73.3259 77.0238 73.4856 77.8529 73.8049 78.6547C74.1662 79.5749 74.7377 80.4404 75.5191 81.2695C75.9225 81.6977 76.3763 82.0986 76.8805 82.4904C77.225 82.7546 77.5863 83.0006 77.9645 83.2466" stroke="#FF9100" stroke-width="0.5" stroke-miterlimit="10" stroke-linecap="round"/>
<path d="M89.0987 72.8055C97.7912 72.8055 104.838 68.3796 104.838 62.9201C104.838 57.4606 97.7912 53.0347 89.0987 53.0347C80.4063 53.0347 73.3596 57.4606 73.3596 62.9201C73.3596 68.3796 80.4063 72.8055 89.0987 72.8055Z" stroke="#FF9100" stroke-width="0.5" stroke-miterlimit="10" stroke-linecap="round"/>
<path d="M88.9055 70.6553C96.3867 70.6553 102.451 67.1514 102.451 62.829C102.451 58.5067 96.3867 55.0027 88.9055 55.0027C81.4243 55.0027 75.3596 58.5067 75.3596 62.829C75.3596 67.1514 81.4243 70.6553 88.9055 70.6553Z" stroke="#FF9100" stroke-width="0.5" stroke-miterlimit="10" stroke-linecap="round"/>
<path d="M88.8885 68.2955C94.1049 68.2955 98.3336 65.848 98.3336 62.8289C98.3336 59.8098 94.1049 57.3624 88.8885 57.3624C83.6721 57.3624 79.4434 59.8098 79.4434 62.8289C79.4434 65.848 83.6721 68.2955 88.8885 68.2955Z" stroke="#FF9100" stroke-width="0.5" stroke-miterlimit="10" stroke-linecap="round"/>
<path d="M88.8885 65.9813C91.9004 65.9813 94.3421 64.57 94.3421 62.829C94.3421 61.0879 91.9004 59.6766 88.8885 59.6766C85.8765 59.6766 83.4348 61.0879 83.4348 62.829C83.4348 64.57 85.8765 65.9813 88.8885 65.9813Z" stroke="#FF9100" stroke-width="0.5" stroke-miterlimit="10" stroke-linecap="round"/>
<path d="M135.812 50.5565L135.77 63.895C133.728 65.1796 131.266 66.0451 128.644 66.4551C126.03 66.8925 123.257 66.8925 120.644 66.4551C118.022 66.0269 115.543 65.1796 113.493 63.895L113.535 50.5565" stroke="#FF9100" stroke-width="0.5" stroke-miterlimit="10"/>
<path d="M128.686 53.1259L128.644 66.4643" stroke="#FF9100" stroke-width="0.5" stroke-miterlimit="10" stroke-linecap="round"/>
<path d="M120.686 53.1259L120.652 66.4643" stroke="#FF9100" stroke-width="0.5" stroke-miterlimit="10" stroke-linecap="round"/>
<path d="M135.812 50.5566L135.77 63.895C136.719 63.2937 137.518 62.6377 138.173 61.9453C138.308 61.7995 138.425 61.6719 138.543 61.5353C139.106 60.8611 139.618 59.9317 140.055 58.8202C140.291 58.228 140.341 57.8089 140.341 56.9434C140.341 50.6022 140.375 43.851 140.375 43.851" stroke="#FF9100" stroke-width="0.5" stroke-miterlimit="10" stroke-linecap="round"/>
<path d="M108.888 43.5321C108.88 47.5227 108.872 52.8434 108.855 56.8523C108.855 57.6722 109.014 58.5013 109.334 59.3031C109.695 60.2233 110.266 61.0888 111.048 61.9179C111.451 62.3461 111.905 62.747 112.409 63.1388C112.754 63.403 113.115 63.649 113.493 63.895" stroke="#FF9100" stroke-width="0.5" stroke-miterlimit="10" stroke-linecap="round"/>
<path d="M124.627 53.4539C133.32 53.4539 140.366 49.028 140.366 43.5685C140.366 38.109 133.32 33.6831 124.627 33.6831C115.935 33.6831 108.888 38.109 108.888 43.5685C108.888 49.028 115.935 53.4539 124.627 53.4539Z" stroke="#FF9100" stroke-width="0.5" stroke-miterlimit="10" stroke-linecap="round"/>
<path d="M124.434 51.3037C131.915 51.3037 137.98 47.7997 137.98 43.4774C137.98 39.155 131.915 35.6511 124.434 35.6511C116.953 35.6511 110.888 39.155 110.888 43.4774C110.888 47.7997 116.953 51.3037 124.434 51.3037Z" stroke="#FF9100" stroke-width="0.5" stroke-miterlimit="10" stroke-linecap="round"/>
<path d="M124.417 48.944C129.634 48.944 133.862 46.4965 133.862 43.4774C133.862 40.4583 129.634 38.0109 124.417 38.0109C119.201 38.0109 114.972 40.4583 114.972 43.4774C114.972 46.4965 119.201 48.944 124.417 48.944Z" stroke="#FF9100" stroke-width="0.5" stroke-miterlimit="10" stroke-linecap="round"/>
<path d="M124.417 46.6206C127.429 46.6206 129.871 45.2093 129.871 43.4682C129.871 41.7272 127.429 40.3159 124.417 40.3159C121.405 40.3159 118.964 41.7272 118.964 43.4682C118.964 45.2093 121.405 46.6206 124.417 46.6206Z" stroke="#FF9100" stroke-width="0.5" stroke-miterlimit="10" stroke-linecap="round"/>
<path d="M179.457 81.4062L179.415 94.7446C177.373 96.0292 174.911 96.8948 172.29 97.3048" stroke="#FF9100" stroke-width="0.5" stroke-miterlimit="10"/>
<path d="M179.458 81.4061L179.416 94.7446C180.365 94.1432 181.163 93.4872 181.819 92.7948C181.953 92.649 182.071 92.5215 182.189 92.3848C182.752 91.7106 183.264 90.7813 183.701 89.6698C183.936 89.0776 183.987 88.6585 183.987 87.7929C183.987 81.4517 184.02 74.7005 184.02 74.7005" stroke="#FF9100" stroke-width="0.5" stroke-miterlimit="10" stroke-linecap="round"/>
<path d="M172.458 64.8881C179.113 66.036 184.004 69.8717 184.004 74.4181C184.004 78.9645 179.088 82.8184 172.407 83.9572" stroke="#FF9100" stroke-width="0.5" stroke-miterlimit="10" stroke-linecap="round"/>
<path d="M172.407 81.7433C177.76 80.6956 181.617 77.771 181.617 74.327C181.617 70.9013 177.802 67.9858 172.491 66.929" stroke="#FF9100" stroke-width="0.5" stroke-miterlimit="10" stroke-linecap="round"/>
<path d="M172.491 69.4891C175.475 70.4093 177.508 72.2224 177.508 74.3179C177.508 76.4134 175.441 78.2629 172.416 79.174" stroke="#FF9100" stroke-width="0.5" stroke-miterlimit="10" stroke-linecap="round"/>
<path d="M172.475 72.4683C173.13 72.9876 173.517 73.6345 173.517 74.327C173.517 75.0194 173.13 75.6572 172.475 76.1856" stroke="#FF9100" stroke-width="0.5" stroke-miterlimit="10" stroke-linecap="round"/>
<path d="M172.491 53.1076C172.491 53.5814 172.416 54.0551 172.273 54.5198C172.248 54.6018 172.214 54.702 172.18 54.7931C172.164 54.8296 172.155 54.8751 172.138 54.9025C172.122 54.948 172.105 54.9845 172.08 55.0209C172.004 55.2031 171.92 55.3853 171.827 55.5585C171.693 55.7953 171.542 56.0322 171.365 56.26C171.214 56.4695 171.038 56.6791 170.853 56.8795C170.651 57.0982 170.433 57.2986 170.206 57.4991C169.853 57.7997 169.466 58.0822 169.029 58.3555L168.945 58.4102L130.854 82.4084L97.5185 103.418C95.9723 104.393 94.0984 105.049 92.1153 105.368C90.1321 105.687 88.0481 105.687 86.065 105.368C84.0819 105.049 82.1996 104.393 80.645 103.418L46.629 82.1259L8.67204 58.3646C8.67204 58.3646 8.61322 58.3282 8.58801 58.31C7.05023 57.326 6.02505 56.1416 5.52086 54.8934C5.27717 54.292 5.15112 53.6725 5.15112 53.0438V53.0256C5.15112 52.8798 5.15112 52.7432 5.17633 52.5974C5.19314 52.4516 5.20994 52.3058 5.23515 52.151C5.26036 52.0052 5.30238 51.8685 5.3444 51.7136C5.39481 51.5314 5.45364 51.3583 5.52926 51.1852V51.167C5.52926 51.167 5.55447 51.1032 5.57968 51.0759C5.84018 50.4472 6.25193 49.8277 6.79814 49.2537C6.89898 49.1444 6.99981 49.035 7.10906 48.9348C7.53762 48.5157 8.05021 48.133 8.62162 47.7686L80.124 2.70593C81.6702 1.73106 83.5441 1.07507 85.5272 0.756191C87.5103 0.437308 89.5943 0.437308 91.5775 0.756191C93.5606 1.07507 95.4345 1.73106 96.9975 2.70593L168.979 47.7686C169.122 47.8597 169.273 47.9508 169.399 48.051C169.954 48.4337 170.433 48.8437 170.836 49.2719C171.407 49.8732 171.827 50.511 172.105 51.167C172.365 51.8047 172.5 52.4607 172.5 53.0985L172.491 53.1076Z" stroke="#FF9100" stroke-width="0.5" stroke-miterlimit="10" stroke-linecap="round"/>
</svg>
