<svg width="620" height="509" viewBox="0 0 620 509" fill="none" xmlns="http://www.w3.org/2000/svg">
<g clip-path="url(#clip0_197_325)">
<path d="M545.286 106.799C534.01 94.6086 518.013 86.4866 501.236 83.2126C484.465 79.9481 466.479 81.5064 452.165 88.7331C432.985 98.414 427.474 114.267 427.353 125.627C427.254 134.695 427.408 151.089 427.408 151.089C426.547 151.89 425.53 152.604 424.357 153.189C420.785 154.99 416.42 155.368 412.254 154.561C408.066 153.742 404.097 151.725 401.288 148.692L396.564 143.582C387.266 133.522 370.138 130.181 358.317 136.126L297.387 166.766C289.634 170.657 287.016 174.881 286.995 184.31C286.973 193.74 286.955 218.146 286.955 218.146C283.694 217.447 280.615 215.824 278.419 213.454L263.362 197.16C258.728 192.142 250.199 190.482 244.315 193.443L161.893 234.882C158.452 236.609 156.678 239.532 156.723 242.663C156.723 242.663 156.793 276.149 156.706 278.652C155.585 277.958 154.551 277.123 153.672 276.17L130.222 250.808L26.4825 302.955L26.4097 358.709L108.024 447.007L211.772 394.853L211.812 362.066C212.623 362.651 213.38 363.3 214.048 364.023L224.388 375.216C229.022 380.234 237.551 381.894 243.435 378.933L325.857 337.494C329.38 335.725 331.151 332.694 331.023 329.481L331.064 296.818C334.019 297.599 336.792 299.138 338.796 301.307L340.691 303.355C349.989 313.415 367.117 316.756 378.938 310.811L439.868 280.171C446.743 276.706 450.315 270.873 450.257 264.617L450.257 264.576L450.295 232.176L452.983 231.205C457.222 230.043 462.199 230.386 466.626 232.341C488.237 241.936 514.285 242.766 534.155 232.771C536.34 231.67 538.404 230.471 540.311 229.185C553.622 220.205 560.136 206.906 559.263 192.944C559.376 191.28 559.437 143.983 559.324 142.293C560.131 130.511 555.565 117.922 545.286 106.799Z" fill="black"/>
<path d="M211.652 361.829C212.463 362.414 213.22 363.063 213.888 363.786L224.228 374.978C228.862 379.997 237.391 381.657 243.275 378.696L325.697 337.257C329.22 335.488 330.991 332.457 330.863 329.244" stroke="#FF71E1" stroke-width="0.5" stroke-miterlimit="10"/>
<path d="M26.2498 358.472L107.864 446.77L211.612 394.616" stroke="#FF71E1" stroke-width="0.5" stroke-miterlimit="10"/>
<path d="M450.097 264.339L450.097 264.38C450.155 270.636 446.583 276.469 439.708 279.934L378.778 310.574C366.957 316.519 349.829 313.177 340.531 303.118L338.636 301.069C336.632 298.901 333.859 297.362 330.904 296.58" stroke="#FF71E1" stroke-width="0.5" stroke-miterlimit="10"/>
<path d="M330.542 296.478C330.542 296.478 330.489 296.46 330.464 296.463" stroke="#FF71E1" stroke-width="0.5" stroke-miterlimit="10"/>
<path d="M450.135 231.939C454.82 229.69 461.073 229.724 466.466 232.104C488.077 241.699 514.125 242.529 533.995 232.534C536.18 231.433 538.244 230.234 540.151 228.948C553.462 219.968 559.976 206.669 559.104 192.707" stroke="#FF71E1" stroke-width="0.5" stroke-miterlimit="10"/>
<path d="M211.659 356.758C212.479 357.337 213.227 357.992 213.895 358.715L224.241 369.917C228.869 374.926 237.398 376.586 243.281 373.625L325.703 332.187C328.161 330.956 329.764 329.116 330.461 327.002C330.695 326.32 330.836 325.604 330.872 324.875L330.869 324.809C330.89 324.615 330.886 324.424 330.867 324.23L330.87 324.173" stroke="#FF71E1" stroke-width="0.5" stroke-miterlimit="10"/>
<path d="M26.2561 353.401L107.87 441.699L211.609 389.552" stroke="#FF71E1" stroke-width="0.5" stroke-miterlimit="10"/>
<path d="M450.141 226.868C454.839 224.638 461.069 224.659 466.463 227.04C488.083 236.628 514.131 237.458 533.992 227.47C536.186 226.362 538.24 225.17 540.157 223.877C551.847 215.99 558.297 204.778 559.103 192.707C559.216 191.043 559.217 189.358 559.11 187.677" stroke="#FF71E1" stroke-width="0.5" stroke-miterlimit="10"/>
<path d="M330.91 291.51C333.865 292.291 336.641 293.814 338.642 295.999L340.538 298.047C349.835 308.107 366.963 311.448 378.784 305.503L439.711 274.879C445.604 271.911 449.061 267.205 449.908 261.981C450.026 261.211 450.097 260.431 450.098 259.63L450.098 259.506L450.104 259.433" stroke="#FF71E1" stroke-width="0.5" stroke-miterlimit="10"/>
<path d="M330.917 286.439C333.865 287.211 336.638 288.75 338.655 290.937L340.544 292.976C349.841 303.036 366.96 306.383 378.781 300.438L439.717 269.808C444.656 267.319 447.894 263.602 449.294 259.385C449.575 258.588 449.78 257.76 449.914 256.91C450.049 256.102 450.103 255.278 450.11 254.445L450.11 254.362" stroke="#FF71E1" stroke-width="0.5" stroke-miterlimit="10"/>
<path d="M450.147 221.798C454.839 219.558 461.082 219.598 466.476 221.979C488.089 231.557 514.138 232.387 533.998 222.399C536.193 221.291 538.247 220.099 540.163 218.806C551.043 211.466 557.382 201.24 558.866 190.133C558.968 189.319 559.055 188.501 559.11 187.677C559.232 185.966 559.226 184.23 559.113 182.498" stroke="#FF71E1" stroke-width="0.5" stroke-miterlimit="10"/>
<path d="M327.026 285.833L327.016 285.84" stroke="#FF71E1" stroke-width="0.5" stroke-miterlimit="10"/>
<path d="M211.662 351.703C212.476 352.272 213.223 352.928 213.891 353.651L224.247 364.846C228.875 369.855 237.404 371.515 243.287 368.554L325.709 327.116C327.169 326.379 328.332 325.429 329.176 324.335C329.759 323.596 330.19 322.795 330.468 321.931C330.701 321.249 330.842 320.533 330.878 319.804L330.875 319.738C330.897 319.544 330.893 319.353 330.873 319.159L330.876 319.102" stroke="#FF71E1" stroke-width="0.5" stroke-miterlimit="10"/>
<path d="M211.616 384.481L107.883 436.637L26.2625 348.33" stroke="#FF71E1" stroke-width="0.5" stroke-miterlimit="10"/>
<path d="M26.2751 343.269L107.88 431.573L211.622 379.41" stroke="#FF71E1" stroke-width="0.5" stroke-miterlimit="10"/>
<path d="M330.886 314.015L330.876 314.022C330.899 314.241 330.89 314.454 330.881 314.667L330.885 314.734C330.849 315.462 330.717 316.172 330.474 316.861C330.203 317.734 329.772 318.535 329.188 319.274C328.554 320.102 327.728 320.853 326.73 321.471C326.415 321.683 326.078 321.883 325.722 322.054L243.3 363.493C237.401 366.451 228.881 364.785 224.253 359.775L213.904 348.589C213.236 347.866 212.479 347.217 211.668 346.632" stroke="#FF71E1" stroke-width="0.5" stroke-miterlimit="10"/>
<path d="M441.981 222.917C441.619 223.161 441.234 223.393 440.843 223.616C440.499 223.806 440.14 223.993 439.771 224.187L378.841 254.826C367.02 260.771 349.892 257.43 340.595 247.371L338.709 245.316C336.423 242.854 333.192 241.21 329.791 240.55C326.4 239.883 322.84 240.2 319.939 241.66C315.652 243.82 313.989 247.855 315.254 251.806C315.531 252.71 315.976 253.597 316.565 254.47C316.891 254.954 317.262 255.421 317.7 255.885L319.049 257.35L322.424 260.995L326.637 265.553L328.04 267.078C329.219 268.353 330.033 269.723 330.496 271.109C330.579 271.356 330.653 271.61 330.711 271.861C330.75 272.042 330.795 272.232 330.818 272.41C330.89 272.803 330.929 273.191 330.933 273.588C330.95 273.757 330.941 273.929 330.932 274.1L330.926 274.339C330.911 274.501 330.895 274.663 330.874 274.816C330.855 274.953 330.839 275.074 330.814 275.201C330.796 275.338 330.77 275.465 330.729 275.59C330.689 275.797 330.632 276.001 330.559 276.201C330.556 276.259 330.55 276.291 330.521 276.31C330.25 277.183 329.82 277.984 329.236 278.723C328.646 279.494 327.899 280.177 327.013 280.775" stroke="#FF71E1" stroke-width="0.5" stroke-miterlimit="10"/>
<path d="M330.929 281.377C333.894 282.152 336.66 283.682 338.661 285.866L340.55 287.905C349.854 297.974 366.966 301.313 378.787 295.367L439.724 264.737C443.689 262.739 446.554 259.95 448.26 256.742C448.678 255.963 449.036 255.156 449.301 254.314C449.582 253.517 449.786 252.689 449.911 251.846C450.039 251.069 450.11 250.29 450.111 249.489L450.11 249.406L450.12 249.399L450.11 249.282L450.113 249.183" stroke="#FF71E1" stroke-width="0.5" stroke-miterlimit="10"/>
<path d="M330.551 281.272C330.551 281.272 330.514 281.257 330.489 281.26" stroke="#FF71E1" stroke-width="0.5" stroke-miterlimit="10"/>
<path d="M553.761 159.202C553.28 160.01 552.76 160.802 552.218 161.582C551.656 162.375 551.063 163.162 550.432 163.933C549.804 164.729 549.131 165.501 548.42 166.257C546.064 168.771 543.332 171.097 540.224 173.194C538.307 174.487 536.253 175.679 534.059 176.787C514.189 186.781 488.15 185.945 466.53 176.357C461.031 173.923 454.625 173.951 449.899 176.325L447.091 177.736C442.044 180.271 439.95 184.941 441.15 189.599C441.372 190.484 441.719 191.369 442.193 192.236C442.398 192.622 442.635 193.015 442.891 193.394C443.25 193.925 443.659 194.45 444.113 194.958C444.187 195.047 444.254 195.126 444.337 195.208C445.238 196.174 446.025 197.175 446.71 198.19C447.593 199.5 448.307 200.826 448.844 202.176C449.444 203.663 449.85 205.17 450.036 206.659C450.239 208.234 450.215 209.783 449.965 211.305C449.94 211.473 449.915 211.642 449.868 211.798C449.755 212.495 449.576 213.155 449.358 213.799C449.087 214.63 448.739 215.431 448.321 216.21C447.931 216.928 447.497 217.622 446.993 218.293" stroke="#FF71E1" stroke-width="0.5" stroke-miterlimit="10"/>
<path d="M559.122 177.535C559.226 179.191 559.222 180.851 559.113 182.498C559.068 183.357 558.975 184.207 558.866 185.053C558.754 185.874 558.616 186.699 558.447 187.517C556.421 197.678 550.23 206.949 540.15 213.748C538.243 215.035 536.196 216.237 534.011 217.338C514.144 227.316 488.096 226.486 466.482 216.908C461.091 214.511 454.845 214.487 450.154 216.727" stroke="#FF71E1" stroke-width="0.5" stroke-miterlimit="10"/>
<path d="M211.628 374.339L107.886 426.502L26.2815 338.198" stroke="#FF71E1" stroke-width="0.5" stroke-miterlimit="10"/>
<path d="M211.675 341.562C212.495 342.14 213.242 342.796 213.91 343.518L224.26 354.705C228.888 359.714 237.407 361.38 243.297 358.428L325.728 316.983C326.085 316.812 326.422 316.612 326.736 316.4C327.735 315.782 328.56 315.032 329.195 314.203C329.779 313.464 330.209 312.663 330.487 311.799C330.733 311.095 330.868 310.369 330.891 309.621L330.894 309.564C330.906 309.377 330.902 309.186 330.889 309.002" stroke="#FF71E1" stroke-width="0.5" stroke-miterlimit="10"/>
<path d="M156.546 278.415C156.516 278.021 156.511 277.623 156.548 277.226L156.535 277.207" stroke="#FF71E1" stroke-width="0.5" stroke-miterlimit="10"/>
<path d="M286.795 217.909L286.795 216.984" stroke="#FF71E1" stroke-width="0.5" stroke-miterlimit="10"/>
<path d="M450.123 244.179L450.113 244.186L450.117 244.335L450.117 244.418C450.116 245.219 450.045 245.998 449.917 246.775C449.793 247.618 449.579 248.453 449.304 249.26C449.033 250.091 448.685 250.892 448.267 251.671C447.839 252.498 447.32 253.29 446.73 254.061C445.023 256.262 442.685 258.184 439.73 259.667L378.8 290.306C366.973 296.242 349.851 292.91 340.553 282.851L338.668 280.796C336.651 278.608 333.884 277.078 330.929 276.297" stroke="#FF71E1" stroke-width="0.5" stroke-miterlimit="10"/>
<path d="M559.129 172.465C559.242 174.155 559.238 175.856 559.123 177.535C559.074 178.369 558.984 179.202 558.872 180.024C558.76 180.845 558.623 181.669 558.463 182.481C558.303 183.293 558.105 184.131 557.878 184.946C555.394 194.119 549.422 202.441 540.182 208.674C538.266 209.967 536.212 211.159 534.017 212.267C514.147 222.261 488.102 221.416 466.488 211.837C461.088 209.447 454.842 209.423 450.157 211.672C450.119 211.698 450.081 211.723 450.03 211.73" stroke="#FF71E1" stroke-width="0.5" stroke-miterlimit="10"/>
<path d="M449.868 211.798C449.915 211.642 449.94 211.473 449.965 211.305C450.215 209.783 450.239 208.234 450.036 206.659C449.85 205.17 449.444 203.663 448.844 202.176C448.307 200.826 447.593 199.5 446.71 198.19C446.025 197.175 445.238 196.174 444.337 195.208C444.254 195.126 444.187 195.047 444.113 194.958C443.659 194.45 443.25 193.925 442.891 193.394C442.635 193.015 442.398 192.622 442.193 192.236C441.719 191.369 441.372 190.484 441.15 189.599C439.95 184.941 442.044 180.271 447.091 177.736L449.899 176.325C454.625 173.951 461.031 173.923 466.53 176.357C488.15 185.945 514.189 186.781 534.059 176.787C536.253 175.679 538.307 174.487 540.224 173.194C543.332 171.097 546.064 168.771 548.42 166.257C549.131 165.501 549.804 164.729 550.432 163.933C551.063 163.162 551.656 162.375 552.218 161.582C552.76 160.802 553.28 160.01 553.761 159.202C554.24 158.409 554.68 157.602 555.095 156.797" stroke="#FF71E1" stroke-width="0.5" stroke-miterlimit="10"/>
<path d="M211.641 369.278L107.892 421.431L26.2878 333.127" stroke="#FF71E1" stroke-width="0.5" stroke-miterlimit="10"/>
<path d="M330.895 303.889C330.915 304.125 330.912 304.347 330.891 304.583C330.871 305.314 330.736 306.04 330.493 306.728C330.216 307.592 329.775 308.4 329.192 309.139C328.557 309.967 327.741 310.711 326.743 311.329C326.428 311.542 243.303 353.357 243.303 353.357C237.42 356.319 228.9 354.653 224.256 349.64L213.917 338.448C212.197 336.598 209.95 335.201 207.505 334.352" stroke="#FF71E1" stroke-width="0.5" stroke-miterlimit="10"/>
<path d="M156.545 272.244L156.542 272.136L156.551 272.088" stroke="#FF71E1" stroke-width="0.5" stroke-miterlimit="10"/>
<path d="M156.552 273.344L156.542 273.35C156.595 274.005 156.715 274.655 156.928 275.299C157.204 276.203 157.631 277.103 158.213 277.966C158.559 278.478 158.962 278.993 159.419 279.486L159.924 280.029" stroke="#FF71E1" stroke-width="0.5" stroke-miterlimit="10"/>
<path d="M450.12 239.197L450.132 239.216C450.126 240.049 450.061 240.88 449.924 241.704C449.799 242.548 449.595 243.376 449.317 244.198C449.045 245.03 448.694 245.847 448.267 246.632C447.833 247.449 447.323 248.235 446.736 248.99C446.105 249.803 445.39 250.574 444.587 251.296C443.224 252.547 441.6 253.656 439.736 254.596L378.806 285.235C366.986 291.18 349.857 287.839 340.56 277.78L338.664 275.731C336.552 273.443 333.623 271.857 330.496 271.109" stroke="#FF71E1" stroke-width="0.5" stroke-miterlimit="10"/>
<path d="M286.805 211.98C286.793 212.209 286.79 212.432 286.804 212.657C286.806 213.401 286.875 214.141 286.995 214.875C287.122 215.742 287.329 216.624 287.606 217.487C287.664 217.696 287.731 217.899 287.799 218.102" stroke="#FF71E1" stroke-width="0.5" stroke-miterlimit="10"/>
<path d="M430.2 141.447C430.59 143.075 430.554 144.687 430.129 146.175C429.918 146.952 429.614 147.695 429.202 148.401C428.924 148.893 428.591 149.366 428.213 149.814C428.048 150.022 427.877 150.22 427.683 150.406" stroke="#FF71E1" stroke-width="0.5" stroke-miterlimit="10"/>
<path d="M552.218 161.582C552.76 160.802 553.28 160.01 553.761 159.202C554.24 158.41 554.68 157.602 555.095 156.797C555.5 155.999 555.873 155.195 556.224 154.379" stroke="#FF71E1" stroke-width="0.5" stroke-miterlimit="10"/>
<path d="M450.036 206.659C454.74 204.356 461.056 204.361 466.495 206.766C488.115 216.354 514.154 217.191 534.024 207.196C536.218 206.088 538.272 204.896 540.189 203.603C548.589 197.936 554.287 190.544 557.131 182.358C557.399 181.542 557.661 180.717 557.881 179.891C558.111 179.06 558.306 178.238 558.472 177.394C558.638 176.551 558.767 175.774 558.879 174.953C558.991 174.132 559.081 173.298 559.129 172.465C559.244 170.744 559.249 169.002 559.128 167.26" stroke="#FF71E1" stroke-width="0.5" stroke-miterlimit="10"/>
<path d="M553.755 164.272C553.274 165.081 552.754 165.873 552.211 166.653C551.65 167.446 551.066 168.226 550.435 168.997C547.668 172.424 544.26 175.537 540.217 178.265C538.301 179.558 536.247 180.75 534.052 181.858C514.192 191.846 488.143 191.016 466.523 181.428C461.024 178.994 454.619 179.022 449.893 181.395L447.094 182.8C443.911 184.395 441.899 186.843 441.15 189.599" stroke="#FF71E1" stroke-width="0.5" stroke-miterlimit="10"/>
<path d="M26.2847 328.063L26.2911 328.072L107.899 416.36L211.647 364.207" stroke="#FF71E1" stroke-width="0.5" stroke-miterlimit="10"/>
<path d="M330.899 299.041L330.897 299.346C330.89 300.138 330.755 300.905 330.499 301.658C330.222 302.521 329.782 303.329 329.198 304.068C328.563 304.896 327.747 305.64 326.739 306.265C326.434 306.471 243.31 348.287 243.31 348.287C237.426 351.248 228.897 349.588 224.269 344.579L213.923 333.377C211.647 330.908 208.4 329.261 204.999 328.601C203.963 328.403 202.918 328.293 201.879 328.276" stroke="#FF71E1" stroke-width="0.5" stroke-miterlimit="10"/>
<path d="M156.545 266.998L156.558 267.017C156.518 267.431 156.516 267.86 156.549 268.279L156.562 268.298C156.599 268.95 156.728 269.594 156.931 270.244C157.217 271.142 157.637 272.032 158.22 272.895C158.572 273.417 165.546 281.04 165.546 281.04" stroke="#FF71E1" stroke-width="0.5" stroke-miterlimit="10"/>
<path d="M444.621 220.887C443.894 221.557 443.093 222.18 442.226 222.765" stroke="#FF71E1" stroke-width="0.5" stroke-miterlimit="10"/>
<path d="M326.637 265.553C327.682 265.58 328.727 265.689 329.763 265.888C333.154 266.555 336.395 268.192 338.671 270.66L340.566 272.709C349.864 282.768 366.992 286.11 378.813 280.164L439.749 249.534C440.621 249.098 441.431 248.634 442.194 248.12C443.062 247.534 443.872 246.905 444.599 246.235C445.403 245.513 446.117 244.741 446.739 243.935C447.336 243.174 447.846 242.388 448.273 241.561C448.691 240.782 449.049 239.975 449.32 239.143C449.595 238.337 449.809 237.502 449.933 236.659C450.049 235.946 450.123 235.233 450.134 234.508L450.138 233.815" stroke="#FF71E1" stroke-width="0.5" stroke-miterlimit="10"/>
<path d="M286.812 207.075C286.803 207.205 286.803 207.329 286.803 207.453C286.806 208.238 286.882 209.029 286.999 209.82C287.135 210.68 287.329 211.544 287.606 212.406C287.876 213.301 288.217 214.175 288.64 215.05C289.073 215.959 289.582 216.858 290.177 217.74C290.305 217.93 290.44 218.129 290.583 218.322" stroke="#FF71E1" stroke-width="0.5" stroke-miterlimit="10"/>
<path d="M427.26 149.698L427.248 150.852L427.496 150.602C427.566 150.541 427.629 150.47 427.683 150.406C427.877 150.22 428.048 150.022 428.213 149.814C428.591 149.366 428.924 148.893 429.203 148.401C429.614 147.695 429.918 146.952 430.129 146.175C430.554 144.687 430.59 143.075 430.2 141.447C430.109 141.025 429.993 140.606 429.842 140.197C429.659 139.699 429.495 139.189 429.331 138.678" stroke="#FF71E1" stroke-width="0.5" stroke-miterlimit="10"/>
<path d="M552.218 161.582C552.76 160.802 553.28 160.01 553.761 159.202C554.24 158.41 554.68 157.602 555.095 156.797C555.5 155.999 555.873 155.195 556.224 154.379C556.556 153.575 556.872 152.768 557.166 151.949" stroke="#FF71E1" stroke-width="0.5" stroke-miterlimit="10"/>
<path d="M448.844 202.176L449.871 201.663C454.597 199.289 461.002 199.262 466.501 201.695C488.121 211.283 514.16 212.12 534.03 202.125C536.224 201.018 538.278 199.825 540.185 198.539C547.766 193.425 553.132 186.919 556.193 179.692C556.531 178.897 556.847 178.091 557.115 177.275C557.409 176.455 557.661 175.636 557.891 174.805C558.111 173.98 558.306 173.158 558.469 172.33C558.642 171.496 558.779 170.671 558.888 169.825C559.006 168.972 559.083 168.119 559.128 167.26C559.244 165.622 559.246 163.978 559.142 162.323" stroke="#FF71E1" stroke-width="0.5" stroke-miterlimit="10"/>
<path d="M26.3006 322.986L26.2974 323.002L107.911 411.299L211.654 359.136" stroke="#FF71E1" stroke-width="0.5" stroke-miterlimit="10"/>
<path d="M190.497 314.529C191.191 312.473 192.771 310.661 195.185 309.447C198.086 307.987 201.63 307.667 205.031 308.327C208.422 308.994 211.654 310.638 213.945 313.109L224.294 324.296C228.929 329.314 237.448 330.98 243.341 328.013C243.341 328.013 326.997 285.853 327.016 285.84L327.025 285.833C327.912 285.235 328.643 284.549 329.23 283.794C329.813 283.055 330.247 282.238 330.525 281.374C330.544 281.361 330.56 281.323 330.553 281.272C330.774 280.612 330.902 279.918 330.926 279.212C330.941 279.009 330.94 278.802 330.93 278.602" stroke="#FF71E1" stroke-width="0.5" stroke-miterlimit="10"/>
<path d="M330.905 293.888L330.909 294.244C330.899 295.01 330.777 295.755 330.544 296.478C330.534 296.526 330.528 296.558 330.506 296.587C330.228 297.45 329.788 298.258 329.204 298.997C328.57 299.826 327.744 300.576 326.746 301.194C326.431 301.406 243.316 343.216 243.316 343.216C237.432 346.177 228.903 344.517 224.275 339.508L213.929 328.306C211.644 325.844 208.412 324.2 205.011 323.54C202.545 323.051 199.99 323.09 197.66 323.709" stroke="#FF71E1" stroke-width="0.5" stroke-miterlimit="10"/>
<path d="M156.558 262.061L156.554 261.953" stroke="#FF71E1" stroke-width="0.5" stroke-miterlimit="10"/>
<path d="M169.771 280.537L159.432 269.344C158.975 268.852 158.578 268.346 158.232 267.834C157.65 266.97 157.214 266.077 156.937 265.173C156.734 264.523 156.605 263.879 156.558 263.234" stroke="#FF71E1" stroke-width="0.5" stroke-miterlimit="10"/>
<path d="M446.764 223.652C446.84 223.559 446.907 223.473 446.967 223.377C447.481 222.699 447.925 221.999 448.314 221.281C448.72 220.483 449.077 219.676 449.348 218.844C449.566 218.2 449.739 217.531 449.864 216.853C449.912 216.697 449.937 216.528 449.952 216.366" stroke="#FF71E1" stroke-width="0.5" stroke-miterlimit="10"/>
<path d="M448.295 226.333C448.713 225.554 449.071 224.747 449.336 223.905C449.56 223.271 449.733 222.602 449.858 221.924C449.899 221.758 449.924 221.589 449.949 221.421C450.058 220.74 450.129 220.043 450.146 219.327L450.148 218.981" stroke="#FF71E1" stroke-width="0.5" stroke-miterlimit="10"/>
<path d="M442.226 222.765C443.093 222.18 443.894 221.557 444.621 220.887C445.425 220.165 446.139 219.394 446.771 218.581" stroke="#FF71E1" stroke-width="0.5" stroke-miterlimit="10"/>
<path d="M322.424 260.995C324.738 260.373 327.292 260.334 329.759 260.824C333.16 261.484 336.392 263.128 338.683 265.599L340.572 267.638C349.87 277.698 366.998 281.039 378.819 275.094L439.755 244.464C440.115 244.276 440.474 244.089 440.817 243.899C441.301 243.628 441.762 243.345 442.2 243.049C443.068 242.463 443.869 241.84 444.603 241.18C445.4 240.449 446.114 239.677 446.745 238.865C447.342 238.103 447.852 237.317 448.28 236.49C448.707 235.705 449.058 234.888 449.329 234.057C449.557 233.406 449.73 232.737 449.855 232.059C449.893 231.909 449.924 231.75 449.94 231.588C450.055 230.875 450.129 230.162 450.13 229.444C450.155 229.192 450.145 228.951 450.134 228.709" stroke="#FF71E1" stroke-width="0.5" stroke-miterlimit="10"/>
<path d="M294.535 217.824L292.639 215.775C292.537 215.665 292.428 215.545 292.326 215.434C291.521 214.528 290.801 213.605 290.183 212.669C289.588 211.787 289.079 210.888 288.655 209.972C288.223 209.105 287.876 208.22 287.615 207.319C287.335 206.473 287.141 205.61 287.011 204.759C286.878 203.923 286.815 203.069 286.812 202.242L286.812 202.16" stroke="#FF71E1" stroke-width="0.5" stroke-miterlimit="10"/>
<path d="M428.587 136.074C428.803 136.95 429.045 137.822 429.331 138.678C429.495 139.189 429.659 139.699 429.842 140.197C429.993 140.606 430.109 141.025 430.2 141.447C430.59 143.075 430.554 144.687 430.129 146.175C429.918 146.952 429.614 147.695 429.203 148.401C428.924 148.893 428.591 149.366 428.213 149.814C428.048 150.022 427.877 150.22 427.683 150.406C427.629 150.47 427.566 150.541 427.496 150.602" stroke="#FF71E1" stroke-width="0.5" stroke-miterlimit="10"/>
<path d="M427.327 143.523C427.327 143.523 427.32 143.554 427.333 143.573" stroke="#FF71E1" stroke-width="0.5" stroke-miterlimit="10"/>
<path d="M427.257 147.284L427.263 147.419" stroke="#FF71E1" stroke-width="0.5" stroke-miterlimit="10"/>
<path d="M427.277 144.62L427.274 144.719" stroke="#FF71E1" stroke-width="0.5" stroke-miterlimit="10"/>
<path d="M552.218 161.582C552.76 160.802 553.28 160.01 553.761 159.202C554.24 158.409 554.68 157.602 555.095 156.797C555.5 155.999 555.873 155.195 556.224 154.379C556.556 153.575 556.872 152.768 557.166 151.949C557.444 151.126 557.696 150.307 557.919 149.466" stroke="#FF71E1" stroke-width="0.5" stroke-miterlimit="10"/>
<path d="M446.709 198.19C446.821 198.129 446.942 198.061 447.069 198.003L449.877 196.592C454.603 194.218 461.008 194.191 466.514 196.634C488.127 206.213 514.166 207.049 534.036 197.054C536.231 195.947 538.285 194.754 540.201 193.461C546.914 188.933 551.891 183.311 555.073 177.065C555.478 176.267 555.842 175.469 556.199 174.662C556.531 173.858 556.84 173.042 557.134 172.223C557.418 171.41 557.664 170.581 557.894 169.75C558.124 168.918 558.312 168.087 558.485 167.253C558.645 166.441 558.782 165.616 558.894 164.795C559.007 163.974 559.084 163.163 559.141 162.323C559.257 160.602 559.261 158.86 559.141 157.119" stroke="#FF71E1" stroke-width="0.5" stroke-miterlimit="10"/>
<path d="M194.292 320.072C194.559 319.892 194.861 319.744 195.166 319.579C198.067 318.12 201.617 317.809 205.018 318.469C208.419 319.129 211.66 320.767 213.942 323.244L224.282 334.437C228.91 339.446 237.439 341.106 243.329 338.154C243.329 338.154 326.936 296.026 327.013 295.975C327.9 295.377 328.63 294.691 329.217 293.936C329.801 293.197 330.231 292.395 330.509 291.532C330.531 291.503 330.541 291.455 330.556 291.417C330.761 290.754 330.89 290.06 330.919 289.364L330.914 288.636" stroke="#FF71E1" stroke-width="0.5" stroke-miterlimit="10"/>
<path d="M156.552 257.054L156.552 256.971L156.561 256.882" stroke="#FF71E1" stroke-width="0.5" stroke-miterlimit="10"/>
<path d="M156.555 258.087L156.558 258.154C156.611 258.808 156.741 259.452 156.944 260.103C157.22 261.006 157.656 261.9 158.239 262.763C158.584 263.275 158.981 263.781 159.438 264.273L173.153 279.112" stroke="#FF71E1" stroke-width="0.5" stroke-miterlimit="10"/>
<path d="M442.226 222.765C443.093 222.18 443.894 221.557 444.621 220.887C445.425 220.165 446.139 219.394 446.771 218.581" stroke="#FF71E1" stroke-width="0.5" stroke-miterlimit="10"/>
<path d="M319.049 257.35C319.322 257.179 319.618 257.021 319.914 256.863C322.82 255.413 326.365 255.093 329.765 255.753C333.166 256.413 336.414 258.06 338.69 260.528L340.579 262.567C349.883 272.636 367.004 275.968 378.825 270.023L439.752 239.399C440.111 239.212 440.471 239.025 440.824 238.828C441.224 238.599 441.609 238.367 441.971 238.123C442.054 238.081 442.13 238.029 442.207 237.978C443.074 237.393 443.875 236.77 444.602 236.099C445.406 235.378 446.12 234.606 446.752 233.794C446.828 233.701 446.894 233.615 446.955 233.519C447.468 232.841 447.906 232.131 448.295 231.413C448.707 230.625 449.064 229.818 449.329 228.976C449.553 228.342 449.726 227.673 449.852 226.995C449.893 226.829 449.927 226.654 449.952 226.485C450.058 225.82 450.123 225.155 450.14 224.481L450.147 223.648" stroke="#FF71E1" stroke-width="0.5" stroke-miterlimit="10"/>
<path d="M446.984 218.299C446.924 218.395 446.847 218.488 446.771 218.582" stroke="#FF71E1" stroke-width="0.5" stroke-miterlimit="10"/>
<path d="M448.311 216.217C447.922 216.935 447.487 217.628 446.983 218.3" stroke="#FF71E1" stroke-width="0.5" stroke-miterlimit="10"/>
<path d="M286.818 197.089L286.819 197.171C286.821 197.998 286.884 198.853 287.018 199.688C287.145 200.555 287.348 201.411 287.618 202.265C287.882 203.149 288.239 204.027 288.655 204.892C289.079 205.807 289.594 206.716 290.19 207.598C290.807 208.534 291.527 209.457 292.333 210.363C292.435 210.474 292.543 210.594 292.646 210.704L295.072 213.333L297.9 216.395" stroke="#FF71E1" stroke-width="0.5" stroke-miterlimit="10"/>
<path d="M427.343 138.446C427.343 138.446 427.333 138.494 427.34 138.503L427.295 139.362" stroke="#FF71E1" stroke-width="0.5" stroke-miterlimit="10"/>
<path d="M427.327 143.523C427.327 143.523 427.321 143.555 427.333 143.574C427.384 144.41 427.457 145.258 427.58 146.099C427.682 146.97 427.818 147.83 427.987 148.697C428.055 149.065 428.129 149.443 428.213 149.814C428.591 149.366 428.924 148.893 429.202 148.401C429.614 147.695 429.918 146.952 430.129 146.175C430.554 144.687 430.59 143.075 430.2 141.447C430.109 141.025 429.993 140.606 429.842 140.197C429.659 139.699 429.495 139.189 429.331 138.678C429.045 137.822 428.803 136.95 428.587 136.074C428.358 135.221 428.164 134.357 428.002 133.5" stroke="#FF71E1" stroke-width="0.5" stroke-miterlimit="10"/>
<path d="M552.217 161.582C552.76 160.802 553.28 160.01 553.761 159.202C554.24 158.41 554.68 157.602 555.095 156.797C555.5 155.999 555.873 155.195 556.224 154.379C556.556 153.575 556.872 152.768 557.166 151.949C557.443 151.126 557.696 150.307 557.919 149.466C558.146 148.651 558.341 147.829 558.494 147.008" stroke="#FF71E1" stroke-width="0.5" stroke-miterlimit="10"/>
<path d="M559.151 152.197C559.258 153.837 559.247 155.487 559.141 157.119C559.096 157.977 559.009 158.836 558.891 159.689C558.788 160.504 558.651 161.329 558.488 162.156C558.315 162.991 558.117 163.828 557.897 164.653C557.673 165.495 557.421 166.314 557.137 167.126C556.85 167.955 556.534 168.762 556.202 169.566C555.851 170.382 555.468 171.193 555.063 171.991C554.655 172.805 554.208 173.603 553.739 174.389C550.561 179.694 546.024 184.467 540.179 188.41C538.272 189.696 536.224 190.898 534.039 191.999C514.173 201.978 488.124 201.148 466.51 191.569C461.005 189.126 454.609 189.148 449.874 191.528L447.075 192.932C445.937 193.507 444.942 194.192 444.113 194.958" stroke="#FF71E1" stroke-width="0.5" stroke-miterlimit="10"/>
<path d="M26.3098 312.86L107.924 401.157L211.656 349.001" stroke="#FF71E1" stroke-width="0.5" stroke-miterlimit="10"/>
<path d="M191.808 317.192C192.636 316.137 193.757 315.228 195.179 314.518C198.079 313.058 201.633 312.732 205.024 313.398C208.415 314.065 211.663 315.712 213.939 318.18L224.288 329.366C228.916 334.376 237.445 336.035 243.335 333.084C243.335 333.084 326.45 291.274 326.765 291.062C326.847 291.02 326.924 290.968 327 290.917C327.887 290.319 328.633 289.636 329.223 288.865C329.807 288.126 330.241 287.309 330.525 286.455" stroke="#FF71E1" stroke-width="0.5" stroke-miterlimit="10"/>
<path d="M330.563 286.346C330.745 285.753 330.865 285.148 330.914 284.522L330.914 283.721" stroke="#FF71E1" stroke-width="0.5" stroke-miterlimit="10"/>
<path d="M330.49 281.26C330.49 281.26 330.516 281.34 330.525 281.375" stroke="#FF71E1" stroke-width="0.5" stroke-miterlimit="10"/>
<path d="M156.567 251.811L156.562 252.133" stroke="#FF71E1" stroke-width="0.5" stroke-miterlimit="10"/>
<path d="M156.564 252.793L156.565 253.083C156.618 253.737 156.747 254.382 156.95 255.032C157.227 255.936 157.663 256.829 158.245 257.692C158.591 258.204 158.994 258.719 159.451 259.212C159.451 259.212 175.323 276.446 175.649 276.93" stroke="#FF71E1" stroke-width="0.5" stroke-miterlimit="10"/>
<path d="M446.984 218.299C446.924 218.395 446.847 218.488 446.771 218.582" stroke="#FF71E1" stroke-width="0.5" stroke-miterlimit="10"/>
<path d="M442.226 222.765C443.093 222.18 443.894 221.557 444.621 220.887C445.425 220.165 446.139 219.394 446.771 218.581" stroke="#FF71E1" stroke-width="0.5" stroke-miterlimit="10"/>
<path d="M448.295 226.333C447.912 227.061 447.475 227.77 446.961 228.448C446.901 228.544 446.834 228.63 446.758 228.723C446.127 229.535 445.412 230.307 444.609 231.029C443.882 231.699 443.081 232.322 442.213 232.907C442.137 232.959 442.061 233.01 441.984 233.062C441.622 233.306 441.237 233.538 440.846 233.76C440.493 233.957 440.14 234.154 439.765 234.338L378.835 264.977C367.008 270.913 349.895 267.575 340.598 257.515L338.702 255.467C336.411 252.995 333.179 251.352 329.778 250.691C326.387 250.025 322.833 250.351 319.933 251.811C318.521 252.515 317.39 253.43 316.571 254.479" stroke="#FF71E1" stroke-width="0.5" stroke-miterlimit="10"/>
<path d="M446.983 218.3C447.488 217.628 447.922 216.935 448.311 216.217C448.729 215.438 449.077 214.637 449.348 213.805" stroke="#FF71E1" stroke-width="0.5" stroke-miterlimit="10"/>
<path d="M300.397 214.214C300.071 213.73 299.7 213.262 299.262 212.798L298.185 211.634L295.078 208.263L292.652 205.633C292.543 205.513 292.441 205.403 292.332 205.283C291.533 204.386 290.82 203.473 290.202 202.537C289.607 201.654 289.091 200.746 288.668 199.831C288.242 198.972 287.895 198.088 287.631 197.203C287.354 196.341 287.151 195.484 287.024 194.617C286.887 193.756 286.824 192.902 286.828 192.043" stroke="#FF71E1" stroke-width="0.5" stroke-miterlimit="10"/>
<path d="M427.603 130.912C427.704 131.783 427.841 132.643 428.003 133.5C428.165 134.357 428.358 135.221 428.587 136.074C428.803 136.95 429.045 137.822 429.331 138.678C429.495 139.189 429.659 139.699 429.842 140.197C429.993 140.606 430.109 141.025 430.2 141.447C430.59 143.075 430.554 144.687 430.129 146.175C429.918 146.952 429.614 147.695 429.203 148.401C428.965 147.678 428.755 146.936 428.578 146.2C428.342 145.337 428.149 144.474 427.99 143.601C427.818 142.75 427.688 141.899 427.584 141.044C427.469 140.197 427.387 139.355 427.34 138.503C427.333 138.494 427.327 138.484 427.343 138.446C427.326 138.195 427.316 137.953 427.306 137.712" stroke="#FF71E1" stroke-width="0.5" stroke-miterlimit="10"/>
<path d="M427.337 133.438C427.331 133.553 427.319 133.659 427.322 133.767" stroke="#FF71E1" stroke-width="0.5" stroke-miterlimit="10"/>
<path d="M552.218 161.582C552.76 160.802 553.28 160.01 553.761 159.202C554.24 158.409 554.68 157.602 555.095 156.797C555.5 155.999 555.873 155.195 556.224 154.379C556.556 153.575 556.872 152.768 557.166 151.949C557.444 151.126 557.696 150.307 557.919 149.466C558.146 148.651 558.341 147.829 558.494 147.008C558.673 146.183 558.811 145.358 558.917 144.528" stroke="#FF71E1" stroke-width="0.5" stroke-miterlimit="10"/>
<path d="M442.193 192.236C443.248 190.489 444.878 188.976 447.088 187.871L449.887 186.466C454.616 184.077 461.011 184.055 466.517 186.499C488.131 196.077 514.185 196.917 534.046 186.929C536.24 185.821 538.294 184.629 540.211 183.336C545.16 179.997 549.177 176.059 552.215 171.717C552.757 170.938 553.267 170.151 553.749 169.343C554.227 168.551 554.667 167.743 555.082 166.939C555.487 166.141 555.861 165.337 556.212 164.52C556.544 163.717 556.86 162.91 557.153 162.091C557.431 161.268 557.683 160.449 557.907 159.608C558.133 158.792 558.322 157.961 558.494 157.127C558.664 156.309 558.801 155.484 558.907 154.653C559.01 153.839 559.096 153.021 559.151 152.197C559.267 150.518 559.271 148.817 559.157 147.126" stroke="#FF71E1" stroke-width="0.5" stroke-miterlimit="10"/>
<path d="M211.669 343.94L107.921 396.093L26.3162 307.789" stroke="#FF71E1" stroke-width="0.5" stroke-miterlimit="10"/>
<path d="M330.521 276.31C330.25 277.183 329.82 277.984 329.236 278.723C328.646 279.494 327.899 280.177 327.013 280.775C326.936 280.827 326.86 280.878 326.777 280.92C326.463 281.133 326.126 281.332 325.769 281.504L323.613 282.585L243.347 322.942C237.454 325.91 228.935 324.243 224.301 319.225L213.951 308.038C211.676 305.57 208.428 303.923 205.027 303.263C201.626 302.603 198.082 302.923 195.182 304.383C190.904 306.537 189.242 310.571 190.496 314.529C190.776 315.417 191.219 316.32 191.808 317.192C192.128 317.667 192.521 318.147 192.943 318.608L211.676 338.869L107.927 391.022L26.3225 302.718L130.062 250.571L153.512 275.933C154.391 276.886 155.425 277.721 156.546 278.415C156.862 278.616 157.197 278.804 157.541 278.985C158.304 279.396 159.104 279.739 159.924 280.029C160.38 280.19 160.849 280.33 161.32 280.453C161.69 280.549 162.063 280.629 162.436 280.708C163.462 280.913 164.507 281.023 165.546 281.04C166.989 281.061 168.425 280.907 169.771 280.537C170.659 280.311 171.489 279.999 172.288 279.598C172.583 279.44 172.879 279.282 173.153 279.112C174.167 278.496 174.999 277.756 175.649 276.93C176.243 276.185 176.689 275.387 176.973 274.532C177.219 273.828 177.354 273.102 177.368 272.361C177.446 270.873 177.087 269.333 176.299 267.836C175.844 266.997 175.255 266.165 174.527 265.373L159.454 249.077C158.997 248.584 158.594 248.069 158.248 247.557C157.666 246.694 157.246 245.803 156.969 244.9C156.702 244.072 156.575 243.246 156.563 242.426C156.518 239.295 158.292 236.372 161.733 234.644L244.155 193.206C250.039 190.245 258.568 191.905 263.202 196.923L278.259 213.217C280.455 215.587 283.534 217.21 286.795 217.909C286.929 217.943 287.056 217.968 287.184 217.992C287.263 218.007 287.359 218.026 287.432 218.032C287.566 218.066 287.687 218.08 287.799 218.102C288.455 218.211 289.105 218.27 289.758 218.312C290.039 218.316 290.309 218.327 290.583 218.322C291.931 218.324 293.271 218.151 294.535 217.824C295.407 217.594 296.247 217.276 297.035 216.882C297.331 216.724 297.627 216.566 297.9 216.395C298.914 215.78 299.747 215.039 300.397 214.214C300.997 213.478 301.437 212.67 301.714 211.807C301.957 211.118 302.092 210.392 302.122 209.654C302.2 208.166 301.835 206.617 301.047 205.12C300.592 204.281 300.003 203.449 299.274 202.657L298.197 201.492L295.087 198.137L292.661 195.508C292.559 195.397 292.451 195.277 292.348 195.167C291.543 194.261 290.83 193.347 290.205 192.402C289.61 191.519 289.107 190.63 288.674 189.721C288.251 188.847 287.911 187.972 287.64 187.077C287.37 186.224 287.167 185.368 287.04 184.501C285.925 177.356 289.474 170.42 297.227 166.529L358.157 135.889C369.978 129.944 387.106 133.285 396.404 143.345L401.128 148.455C403.937 151.488 407.906 153.505 412.094 154.324C416.26 155.131 420.625 154.753 424.197 152.952C425.37 152.367 426.387 151.653 427.248 150.852L427.496 150.602C427.565 150.541 427.629 150.47 427.683 150.406C427.877 150.221 428.048 150.022 428.213 149.814C428.591 149.366 428.924 148.893 429.202 148.401C429.614 147.695 429.918 146.952 430.129 146.175C430.554 144.687 430.59 143.075 430.2 141.447C430.109 141.025 429.993 140.606 429.842 140.197C429.659 139.699 429.495 139.189 429.331 138.678C429.045 137.822 428.803 136.95 428.587 136.074C428.358 135.221 428.164 134.357 428.002 133.5C427.84 132.643 427.704 131.783 427.602 130.912C427.479 130.071 427.4 129.213 427.343 128.368C426.334 112.372 434.982 97.2604 452.444 88.4895C466.778 81.2912 484.304 79.7111 501.076 82.9756C517.853 86.2496 533.85 94.3715 545.126 106.562C555.405 117.685 559.97 130.274 559.163 142.056" stroke="#FF71E1" stroke-width="0.5" stroke-miterlimit="10"/>
<path d="M442.226 222.765C443.093 222.18 443.894 221.557 444.621 220.887C445.425 220.165 446.139 219.394 446.771 218.581" stroke="#FF71E1" stroke-width="0.5" stroke-miterlimit="10"/>
<path d="M315.254 251.806C315.942 249.741 317.529 247.938 319.933 246.731C322.833 245.271 326.377 244.951 329.778 245.611C333.179 246.271 336.427 247.918 338.702 250.387L340.598 252.435C349.895 262.495 367.014 265.842 378.835 259.897L439.765 229.257C440.124 229.07 440.484 228.883 440.836 228.686C441.237 228.458 441.622 228.226 441.994 227.975C442.07 227.923 442.146 227.872 442.213 227.827C443.081 227.241 443.881 226.618 444.609 225.948C445.412 225.227 446.127 224.455 446.758 223.643" stroke="#FF71E1" stroke-width="0.5" stroke-miterlimit="10"/>
<path d="M446.984 218.299C446.924 218.395 446.847 218.488 446.771 218.582" stroke="#FF71E1" stroke-width="0.5" stroke-miterlimit="10"/>
<path d="M446.983 218.3C447.488 217.628 447.922 216.935 448.311 216.217C448.729 215.438 449.077 214.637 449.348 213.805C449.566 213.161 449.746 212.502 449.858 211.804C449.905 211.648 449.93 211.48 449.955 211.311" stroke="#FF71E1" stroke-width="0.5" stroke-miterlimit="10"/>
<path d="M449.952 216.366C450.071 215.678 450.136 214.972 450.159 214.266L450.154 213.621" stroke="#FF71E1" stroke-width="0.5" stroke-miterlimit="10"/>
<path d="M156.555 247.042L156.555 247.166L156.55 247.529L156.554 247.595L156.557 247.662C156.582 248.419 156.718 249.196 156.962 249.97C157.239 250.874 157.659 251.764 158.242 252.628C158.587 253.14 158.99 253.655 159.447 254.147L174.52 270.444C175.249 271.236 175.838 272.068 176.293 272.907C176.575 273.448 176.8 273.987 176.973 274.532" stroke="#FF71E1" stroke-width="0.5" stroke-miterlimit="10"/>
<path d="M286.838 186.998C286.831 187.831 286.894 188.686 287.034 189.53C287.161 190.397 287.361 191.27 287.637 192.132C287.901 193.017 288.248 193.902 288.671 194.776C289.104 195.685 289.614 196.584 290.209 197.466C290.826 198.402 291.54 199.315 292.345 200.222C292.448 200.332 292.556 200.452 292.665 200.572L295.084 203.192L298.191 206.563L299.268 207.728C299.997 208.52 300.586 209.351 301.041 210.19C301.316 210.722 301.55 211.255 301.715 211.807C301.958 211.118 302.092 210.392 302.122 209.654C302.2 208.166 301.835 206.617 301.047 205.12C300.592 204.281 300.003 203.449 299.274 202.657L298.197 201.492L295.088 198.137L292.662 195.508C292.559 195.397 292.451 195.277 292.348 195.167C291.543 194.261 290.83 193.347 290.206 192.402C289.61 191.519 289.107 190.63 288.675 189.721C288.251 188.847 287.911 187.972 287.641 187.077C287.37 186.224 287.167 185.368 287.04 184.501" stroke="#FF71E1" stroke-width="0.5" stroke-miterlimit="10"/>
<path d="M427.316 133.121C427.329 133.223 427.333 133.331 427.337 133.439C427.393 134.284 427.476 135.126 427.59 135.974C427.694 136.828 427.831 137.689 427.993 138.546C428.155 139.403 428.349 140.266 428.577 141.119C428.794 141.995 429.051 142.871 429.334 143.743C429.498 144.253 429.662 144.764 429.846 145.261C429.952 145.563 430.048 145.87 430.129 146.175" stroke="#FF71E1" stroke-width="0.5" stroke-miterlimit="10"/>
<path d="M552.218 161.582C552.76 160.802 553.28 160.01 553.761 159.202C554.24 158.409 554.68 157.602 555.095 156.797C555.5 155.999 555.873 155.195 556.224 154.379C556.556 153.575 556.872 152.768 557.166 151.949C557.444 151.126 557.696 150.307 557.919 149.466C558.146 148.651 558.341 147.829 558.494 147.008C558.673 146.183 558.811 145.358 558.917 144.528C559.029 143.707 559.109 142.879 559.164 142.056C559.277 143.746 559.273 145.447 559.157 147.126C559.109 147.96 559.019 148.793 558.907 149.614C558.795 150.436 558.661 151.244 558.501 152.056C558.328 152.89 558.14 153.722 557.913 154.537C557.689 155.378 557.437 156.197 557.16 157.02C556.866 157.839 556.55 158.646 556.218 159.45C555.867 160.266 555.494 161.07 555.088 161.868C554.674 162.673 554.234 163.48 553.755 164.273" stroke="#FF71E1" stroke-width="0.5" stroke-miterlimit="10"/>
<path d="M442.226 222.765C443.093 222.18 443.894 221.557 444.621 220.887C445.425 220.165 446.139 219.394 446.771 218.581" stroke="#FF71E1" stroke-width="0.5" stroke-miterlimit="10"/>
<path d="M442.227 222.765C442.15 222.816 442.073 222.868 441.987 222.926" stroke="#FF71E1" stroke-width="0.5" stroke-miterlimit="10"/>
<path d="M446.984 218.299C446.924 218.395 446.847 218.488 446.771 218.582" stroke="#FF71E1" stroke-width="0.5" stroke-miterlimit="10"/>
<path d="M211.65 354.072L107.918 406.228L26.3037 317.931" stroke="#FF71E1" stroke-width="0.5" stroke-miterlimit="10"/>
<path d="M26.2498 358.472L26.2561 353.401L26.2624 348.33L26.2752 343.269L26.2815 338.198L26.2878 333.127L26.291 328.072L26.2846 328.063L26.2973 323.002L26.3004 322.986L26.3036 317.931L26.3099 312.86L26.3163 307.789L26.3226 302.718" stroke="#FF71E1" stroke-width="0.5" stroke-miterlimit="10"/>
<path d="M107.927 391.022L107.864 446.77" stroke="#FF71E1" stroke-width="0.5" stroke-miterlimit="10"/>
<path d="M156.563 242.426L156.555 247.042L156.556 247.166L156.55 247.529L156.554 247.596L156.557 247.662L156.567 251.811L156.562 252.132L156.564 252.793L156.565 253.083L156.561 256.882L156.551 256.971L156.552 257.054L156.555 258.087L156.558 258.154L156.554 261.953L156.558 262.061L156.552 263.224L156.558 263.234L156.545 266.998L156.548 267.024" stroke="#FF71E1" stroke-width="0.5" stroke-miterlimit="10"/>
<path d="M330.863 329.244L330.872 324.875L330.867 324.23L330.878 319.805L330.873 319.159L330.885 314.734L330.882 314.031L330.891 309.622L330.889 309.002L330.891 304.583L330.895 303.889L330.897 299.346L330.899 299.041L330.904 296.58L330.909 294.244L330.905 293.888L330.91 291.51L330.919 289.364L330.914 288.636L330.917 286.439L330.914 284.522L330.914 283.721L330.929 281.377L330.926 279.212L330.93 278.602L330.929 276.297L330.926 274.339L330.932 274.1L330.933 273.588" stroke="#FF71E1" stroke-width="0.5" stroke-miterlimit="10"/>
<path d="M156.549 268.279L156.552 268.305L156.551 272.088L156.542 272.136L156.545 272.244L156.552 273.344L156.549 273.36L156.545 277.2L156.548 277.225" stroke="#FF71E1" stroke-width="0.5" stroke-miterlimit="10"/>
<path d="M211.676 338.869L211.675 341.562L211.669 343.94L211.668 346.632L211.657 349.001L211.662 351.703L211.659 356.758L211.653 359.136L211.652 361.829L211.647 364.207L211.641 369.278L211.628 374.339L211.622 379.41L211.615 384.481L211.609 389.552L211.612 394.616" stroke="#FF71E1" stroke-width="0.5" stroke-miterlimit="10"/>
<path d="M286.839 182.248L286.795 217.909" stroke="#FF71E1" stroke-width="0.5" stroke-miterlimit="10"/>
<path d="M427.248 150.852L427.26 149.698L427.263 147.418L427.256 147.285L427.273 144.719L427.276 144.62L427.289 142.582L427.282 142.573L427.295 139.362L427.295 139.32" stroke="#FF71E1" stroke-width="0.5" stroke-miterlimit="10"/>
<path d="M427.343 128.368L427.317 133.121L427.323 133.213L427.32 133.229" stroke="#FF71E1" stroke-width="0.5" stroke-miterlimit="10"/>
<path d="M427.322 133.766L427.305 137.712" stroke="#FF71E1" stroke-width="0.5" stroke-miterlimit="10"/>
<path d="M450.16 209.434L450.157 211.672L450.154 213.621L450.159 214.266L450.154 216.727L450.148 218.981L450.146 219.327L450.148 221.798L450.147 223.648L450.14 224.481L450.141 226.868L450.134 228.709L450.13 229.444L450.135 231.939L450.138 233.815L450.134 234.508L450.12 239.197L450.132 239.216L450.123 244.179L450.119 244.195L450.117 244.335L450.117 244.418L450.113 249.183L450.11 249.282L450.114 249.39L450.11 249.406L450.11 254.362L450.11 254.445L450.104 259.433L450.098 259.506L450.098 259.63L450.097 264.339L450.097 264.38" stroke="#FF71E1" stroke-width="0.5" stroke-miterlimit="10"/>
<path d="M540.546 108.616C530.311 97.5178 515.814 90.0963 500.633 87.0705C485.459 84.0543 469.61 85.4274 456.676 91.9025C446.4 97.0535 437.302 105.883 433.926 117.065C431.48 125.163 432.489 133.014 435.671 140.199C438.559 146.742 435.984 154.401 429.556 157.605L429.153 157.809C419.039 162.85 406.842 160.669 399.188 152.428L398.593 151.794L394.278 147.125C385.786 137.931 370.131 134.88 359.327 140.318L303.648 168.313C296.566 171.862 293.324 178.204 294.345 184.736C294.462 185.527 294.646 186.314 294.89 187.088C295.135 187.903 295.45 188.698 295.838 189.5C296.235 190.336 296.696 191.143 297.24 191.949C297.816 192.803 298.459 193.653 299.198 194.48C299.294 194.581 299.396 194.692 299.482 194.799L301.697 197.198L304.542 200.263L305.523 201.327C311.276 207.551 308.408 217.121 300.778 220.928L298.826 221.901C290.252 226.18 280.902 224.784 274.407 217.79L260.926 203.194C256.774 198.706 249.137 197.217 243.871 199.859L170.058 236.967C166.976 238.508 165.385 241.127 165.42 243.934C165.431 244.671 165.542 245.411 165.786 246.144C166.031 246.959 166.413 247.751 166.931 248.519C167.238 248.975 167.603 249.433 168.012 249.875L177.68 260.319C179.802 262.601 181.973 264.892 183.265 267.775C184.356 270.215 184.337 273.168 183.539 275.708C182.321 279.539 178.993 282.668 175.441 284.416C167.051 288.598 156.935 286.766 150.604 279.911L129.253 256.818L34.8005 304.343L109.105 384.747L203.567 337.257C203.567 337.257 199.77 333.15 199.764 333.141L194.65 327.617L187.235 319.587C181.632 313.524 183.449 303.752 190.875 300.054L193.966 298.507C201.668 294.664 210.968 296.356 216.773 302.656C216.798 302.694 216.811 302.713 216.811 302.713L226.077 312.725C230.229 317.214 237.856 318.709 243.132 316.061C243.132 316.061 317.981 278.35 318.048 278.305C318.839 277.771 319.506 277.156 320.039 276.465C320.566 275.806 320.949 275.078 321.192 274.307C321.221 274.287 321.217 274.262 321.227 274.214C321.287 274.036 321.34 273.848 321.384 273.666C321.422 273.558 321.444 273.446 321.46 273.325C321.482 273.214 321.494 273.109 321.519 272.981C321.538 272.845 321.55 272.698 321.562 272.552L321.571 272.339C321.577 272.183 321.589 272.037 321.57 271.884C321.565 271.528 321.526 271.182 321.471 270.833C321.445 270.671 321.412 270.499 321.377 270.344C321.322 270.119 321.251 269.89 321.187 269.671C320.769 268.435 320.045 267.197 318.987 266.061L317.734 264.697C316.095 262.863 314.279 260.789 312.313 258.512C309.621 255.385 308.898 254.479 308.476 253.01C307.626 250.022 308.751 247.288 309.232 246.108C312.32 238.572 321.406 236.142 322.867 235.778C324.659 235.328 328.733 234.374 333.665 235.824C338.996 237.391 342.116 240.822 343.27 242.225C351.762 251.42 367.418 254.47 378.221 249.032L433.9 221.037C434.241 220.863 434.565 220.686 434.88 220.515C435.242 220.312 435.589 220.105 435.923 219.88C435.999 219.829 436.075 219.777 436.142 219.732C436.933 219.198 437.674 218.63 438.331 218.021C439.065 217.36 439.716 216.659 440.293 215.91C440.36 215.824 440.433 215.747 440.483 215.658C440.956 215.021 441.374 214.366 441.742 213.677C442.004 213.182 442.229 212.672 442.431 212.149C442.725 211.371 442.98 210.577 443.118 209.711C443.162 209.571 443.184 209.418 443.206 209.265C443.431 207.871 443.452 206.463 443.272 205.024C443.102 203.661 442.728 202.284 442.186 200.925C441.701 199.692 441.047 198.476 440.241 197.281C439.613 196.351 438.9 195.438 438.072 194.56C437.996 194.488 437.935 194.418 437.861 194.33C437.449 193.863 437.072 193.386 436.745 192.902C431.814 187.586 433.402 179.019 439.912 175.773L448.266 171.6C454.595 168.435 462.032 168.291 468.412 171.29C468.814 171.475 469.222 171.669 469.618 171.844C489.133 180.533 512.84 181.327 530.748 172.311C532.729 171.319 534.579 170.237 536.305 169.072C539.109 167.181 541.574 165.076 543.691 162.806C544.329 162.127 544.939 161.426 545.504 160.7C546.072 159.999 546.608 159.292 547.112 158.58C547.597 157.88 548.069 157.161 548.503 156.426C548.934 155.707 549.327 154.973 549.701 154.252C550.058 153.527 550.4 152.8 550.71 152.066C551.01 151.339 551.294 150.608 551.556 149.866C551.803 149.12 552.023 148.377 552.231 147.616C552.436 146.87 552.605 146.135 552.743 145.393C552.906 144.648 553.022 143.893 553.112 143.142C553.208 142.401 553.282 141.647 553.322 140.903C554.011 130.221 549.837 118.79 540.504 108.658L540.546 108.616Z" stroke="#FF71E1" stroke-width="0.5" stroke-miterlimit="10"/>
<path d="M535.416 111.193C526.291 101.307 513.379 94.6934 499.846 91.9918C486.319 89.2996 472.203 90.5257 460.671 96.3032C451.515 100.892 443.408 108.764 440.394 118.735C438.024 126.574 439.299 134.162 442.723 141.006C445.832 147.219 443.072 154.81 436.817 157.94L426.92 162.891C417.178 167.764 405.415 165.65 398.032 157.708L396.175 155.717L392.234 151.459C384.49 143.085 370.221 140.3 360.381 145.254L309.637 170.775C303.178 174.014 300.222 179.791 301.158 185.745C301.265 186.459 301.43 187.176 301.661 187.89C301.887 188.635 302.172 189.367 302.525 190.096C302.881 190.85 303.304 191.6 303.797 192.331C304.322 193.109 304.913 193.883 305.585 194.631C305.674 194.723 305.754 194.82 305.843 194.912L307.86 197.099L310.779 200.542C316.097 207.212 314.639 219.406 305.778 223.837L299.338 227.063C289.836 231.817 278.369 229.751 271.178 222.012L259.106 208.95C255.392 204.926 248.558 203.599 243.832 205.973L177.763 239.196C175.009 240.584 173.58 242.929 173.617 245.431C173.628 246.086 173.729 246.749 173.945 247.418C174.167 248.138 174.497 248.854 174.964 249.547C175.239 249.955 175.562 250.372 175.924 250.763L182.019 257.351C188.33 263.806 192.73 271.192 188.495 279.764C183.307 290.277 169.545 293.694 159.692 291.45C157.088 290.86 152.13 289.29 147.079 284.538L128.113 264.034L44.2441 306.187L110.232 377.594L194.13 335.423L182.924 323.296C175.474 315.234 177.882 302.248 187.751 297.316L195.18 293.602C203.436 289.468 213.408 291.273 219.637 298.018L227.935 306.985C231.649 311.01 238.472 312.342 243.208 309.962C243.208 309.962 310.218 276.201 310.275 276.163C310.991 275.68 311.584 275.141 312.054 274.521C312.517 273.932 312.869 273.281 313.08 272.586C313.099 272.574 313.105 272.542 313.105 272.5C313.162 272.338 313.209 272.182 313.244 272.007C313.272 271.905 313.3 271.803 313.313 271.698C313.332 271.602 313.344 271.497 313.356 271.392C313.372 271.271 313.381 271.141 313.4 271.004L313.406 270.807C313.408 270.667 313.417 270.536 313.404 270.393C313.4 270.079 313.37 269.767 313.309 269.45C313.296 269.307 313.251 269.158 313.221 269.012C313.17 268.812 313.118 268.612 313.051 268.409C312.675 267.296 312.031 266.198 311.082 265.182L305.303 258.919C298.875 251.921 300.98 240.686 309.519 236.416L318.729 231.804C327.322 227.512 337.696 229.377 344.185 236.403L345.757 238.117C353.501 246.491 367.771 249.276 377.61 244.322L428.354 218.801C428.659 218.637 428.961 218.488 429.241 218.327C429.565 218.15 429.887 217.947 430.192 217.741C430.258 217.696 430.325 217.651 430.392 217.606C431.117 217.117 431.781 216.6 432.387 216.039C433.051 215.439 433.658 214.795 434.171 214.117C434.228 214.037 434.302 213.961 434.349 213.887C434.787 213.302 435.161 212.704 435.5 212.076C435.737 211.625 435.943 211.169 436.126 210.7C436.398 209.993 436.625 209.26 436.753 208.483C436.787 208.349 436.806 208.212 436.834 208.069C437.044 206.796 437.065 205.511 436.892 204.206C436.739 202.97 436.4 201.708 435.899 200.472C435.45 199.353 434.857 198.248 434.121 197.157C433.552 196.312 432.89 195.475 432.138 194.67C432.068 194.607 432.007 194.538 431.956 194.462C431.576 194.042 431.24 193.606 430.939 193.16C425.4 187.191 427.179 177.57 434.491 173.908L449.753 166.276C455.999 163.153 463.353 163.134 469.584 166.261C470.465 166.703 471.342 167.119 472.216 167.509C489.603 175.245 510.736 175.967 526.698 167.933C528.46 167.048 530.113 166.085 531.658 165.043C534.156 163.357 536.351 161.49 538.24 159.456C538.815 158.848 539.351 158.224 539.849 157.584C540.36 156.963 540.833 156.327 541.28 155.694C541.717 155.067 542.133 154.428 542.51 153.774C542.893 153.128 543.245 152.477 543.577 151.839C543.903 151.191 544.204 150.546 544.482 149.889C544.751 149.239 544.994 148.591 545.24 147.928C545.461 147.268 545.666 146.605 545.842 145.92C546.022 145.261 546.176 144.605 546.291 143.933C546.439 143.268 546.545 142.602 546.62 141.931C546.71 141.263 546.775 140.598 546.814 139.936C547.424 130.413 543.716 120.227 535.397 111.206L535.416 111.193Z" stroke="#FF71E1" stroke-width="0.5" stroke-miterlimit="10"/>
<path d="M167.759 323.297C170.566 326.47 172.764 328.659 175.647 331.822C166.828 336.253 122.099 358.738 112.443 363.595C96.616 346.468 78.4649 326.823 62.7239 309.804L125.928 278.03C125.928 278.03 148.911 306.979 163.016 303.966C163.016 303.966 160.385 314.977 167.766 323.306L167.759 323.297Z" stroke="#FF71E1" stroke-width="0.5" stroke-miterlimit="10"/>
<path d="M177.388 296.907C174.003 298.39 167.601 300.583 160.213 299.092C153.692 297.776 150.625 295.883 144.37 289.901C138.587 284.373 131.116 275.952 127.089 270.579L52.8848 307.868L111.26 371.034L185.477 333.723C179.036 326.747 168.201 317.904 169.566 307.278C169.911 304.561 171.546 300.876 177.391 296.891L177.388 296.907Z" stroke="#FF71E1" stroke-width="0.5" stroke-miterlimit="10"/>
<path d="M300.366 261.864C300.759 262.302 301.165 262.76 301.606 263.208L302.587 264.272C303.411 265.165 303.991 266.127 304.313 267.098C304.37 267.266 304.425 267.45 304.464 267.631C304.49 267.751 304.522 267.881 304.538 268.008C304.584 268.281 304.62 268.561 304.614 268.841C304.634 268.952 304.618 269.073 304.619 269.197L304.619 269.362C304.597 269.473 304.591 269.588 304.579 269.693C304.56 269.788 304.551 269.877 304.532 269.973C304.523 270.062 304.504 270.158 304.472 270.234C304.45 270.387 304.406 270.527 304.362 270.667C304.346 270.706 304.35 270.731 304.33 270.744C304.135 271.359 303.834 271.921 303.428 272.43C303.016 272.97 302.492 273.448 301.862 273.872L243.229 303.432C239.098 305.515 233.128 304.338 229.884 300.825L224.607 295.121C224.607 295.121 224.572 295.089 224.559 295.07C222.648 292.978 218.37 288.919 211.579 286.874C201.335 283.803 192.686 287.54 190.443 288.597C191.453 287.543 197.329 281.218 196.765 272.114C196.356 265.543 192.891 260.798 191.99 259.832C191.239 259.027 183.817 250.947 183.58 250.596C183.171 249.988 182.873 249.361 182.683 248.73C182.499 248.15 182.408 247.562 182.397 246.99C182.365 244.803 183.613 242.746 186.017 241.538L243.796 212.5C247.917 210.424 253.9 211.579 257.15 215.101C257.15 215.101 267.682 226.496 267.701 226.524C271.878 231.051 276.254 234.987 282.584 236.267C288.946 237.553 299.359 235.443 305.509 232.343C305.509 232.343 285.172 244.668 300.359 261.854L300.366 261.864Z" stroke="#FF71E1" stroke-width="0.5" stroke-miterlimit="10"/>
<path d="M425.264 193.303C425.475 193.616 425.692 193.897 425.692 193.897C425.852 194.093 426.012 194.289 426.188 194.488C426.233 194.554 426.287 194.614 426.357 194.677C427.032 195.41 427.627 196.168 428.145 196.936C428.811 197.923 429.349 198.927 429.76 199.947C430.209 201.066 430.522 202.208 430.656 203.332C430.81 204.527 430.794 205.697 430.61 206.843C430.591 206.979 430.566 207.107 430.525 207.231C430.447 207.753 430.309 208.247 430.138 208.735C429.939 209.366 429.671 209.975 429.357 210.559C429.059 211.105 428.733 211.629 428.352 212.134C428.305 212.208 428.248 212.288 428.194 212.352C427.718 212.963 427.172 213.552 426.568 214.097C426.022 214.604 425.409 215.073 424.751 215.517C424.694 215.555 424.636 215.594 424.563 215.629C424.296 215.809 424.004 215.993 423.714 216.16C423.447 216.299 423.18 216.438 422.894 216.59L376.822 239.76C371.572 242.405 365.278 242.536 359.689 241.019C350.167 238.442 345.464 229.024 336.3 225.97C330.07 223.892 324.333 223.841 318.218 226.006C315.933 226.816 313.598 227.797 311.538 229.104C311.91 228.853 312.257 228.606 312.597 228.349C317.818 224.467 319.955 219.533 319.862 212.997C319.814 209.163 318.939 205.253 317.195 201.846C315.788 199.082 313.588 197.239 311.65 194.902C311.586 194.807 311.494 194.731 311.42 194.643C310.81 193.964 310.269 193.266 309.799 192.548C309.351 191.883 308.969 191.216 308.642 190.525C308.319 189.86 308.058 189.207 307.862 188.525C307.65 187.881 307.504 187.234 307.41 186.58C306.565 181.172 309.243 175.928 315.114 172.989L361.186 149.819C370.125 145.321 383.072 147.852 390.107 155.462L393.68 159.319C396.729 162.605 399.243 165.961 403.216 168.251C405.198 169.399 407.035 170.231 408.916 170.839C409.289 170.96 412.491 172.003 416.183 172.232C423.632 172.702 430.12 169.733 432.388 168.59C431.615 168.904 424.629 171.836 422.589 179.383C422.589 179.383 420.656 186.513 425.273 193.296L425.264 193.303Z" stroke="#FF71E1" stroke-width="0.5" stroke-miterlimit="10"/>
<path d="M540.501 139.032C540.462 139.61 540.403 140.202 540.328 140.791C540.254 141.38 540.163 141.965 540.031 142.551C539.931 143.143 539.793 143.72 539.635 144.309C539.478 144.899 539.305 145.485 539.106 146.075C538.901 146.655 538.68 147.232 538.452 147.8C538.205 148.38 537.936 148.948 537.652 149.513C537.357 150.085 537.044 150.669 536.711 151.225C536.366 151.803 535.998 152.368 535.617 152.915C535.224 153.484 534.799 154.047 534.361 154.591C533.911 155.157 533.431 155.701 532.936 156.242C531.27 158.029 529.332 159.682 527.129 161.168C525.775 162.081 524.319 162.925 522.761 163.7C508.688 170.792 490.059 170.161 474.741 163.334C468.021 160.344 464.078 156.516 456.378 158.08C451.374 159.095 447.213 159.817 442.745 162.265C447.539 159.334 449.689 155.137 450.347 149.695C451.145 143.124 447.398 138.763 446.143 132.666C445.302 128.581 445.473 124.351 446.674 120.352C449.322 111.566 456.47 104.618 464.542 100.581C474.706 95.4911 487.147 94.4148 499.068 96.7824C510.995 99.1596 522.381 104.994 530.423 113.705C537.755 121.653 541.029 130.641 540.492 139.038L540.501 139.032Z" stroke="#FF71E1" stroke-width="0.5" stroke-miterlimit="10"/>
<path d="M289.989 262.154L290.772 263.007C291.433 263.72 291.885 264.492 292.146 265.269C292.2 265.412 292.239 265.551 292.268 265.697C292.29 265.793 292.319 265.897 292.333 265.999C292.371 266.221 292.394 266.44 292.392 266.663C292.399 266.755 292.396 266.854 292.393 266.952L292.393 267.076C292.39 267.175 292.372 267.27 292.356 267.35C292.35 267.423 292.344 267.496 292.331 267.56C292.315 267.639 292.309 267.713 292.287 267.783C292.256 267.901 292.224 268.019 292.186 268.127C292.18 268.159 292.177 268.175 292.158 268.188C292.013 268.672 291.766 269.128 291.445 269.538C291.112 269.97 290.115 270.753 290.061 270.776C289.889 270.892 243.302 294.326 243.283 294.339C238.795 296.593 234.279 293.745 231.072 290.677C226.688 286.483 221.766 283.177 216.02 281.117C211.061 279.34 206.594 278.847 203.345 278.761C203.76 277.115 204.069 275.249 204.139 273.214C204.453 263.725 199.357 256.602 196.949 253.67L196.256 252.91C195.997 252.629 195.763 252.344 195.571 252.06C195.245 251.576 195.014 251.069 194.856 250.568C194.708 250.102 194.633 249.641 194.632 249.187C194.607 247.423 195.599 245.787 197.526 244.818L243.745 221.577C247.039 219.92 251.833 220.856 254.422 223.665L261.342 231.146C261.444 231.256 261.6 231.427 261.786 231.619C264.039 233.992 268.107 238.275 273.828 241.18C276.051 242.317 279.486 243.727 284.126 244.394C283.922 247.196 283.961 252.54 286.975 257.934C287.93 259.637 288.995 261.03 290.008 262.142L289.989 262.154Z" stroke="#FF71E1" stroke-width="0.5" stroke-miterlimit="10"/>
<path d="M417.445 177.579C415.988 178.134 413.681 178.807 410.84 178.75C408.97 178.714 406.532 178.288 402.694 176.569C398.181 174.547 394.094 171.575 390.773 167.907C387.602 164.399 385.087 159.663 380.659 157.542C375.112 154.892 368.083 154.346 362.467 157.169L323.929 176.554C319.028 179.018 316.784 183.404 317.489 187.925C317.571 188.478 317.696 189.014 317.87 189.56C318.041 190.121 318.253 190.682 318.525 191.23C318.801 191.803 319.112 192.367 319.489 192.927C319.893 193.524 320.334 194.096 320.849 194.674C320.909 194.744 320.986 194.816 321.047 194.885C325.63 199.828 328.714 207.011 327.802 213.867C327.485 216.234 326.349 218.809 324.238 220.081C329.918 217.147 338.625 217.858 344.006 221.103C349.527 224.433 352.692 230.277 358.883 232.686C364.129 234.725 370.43 234.974 375.56 232.397C380.626 229.849 404.92 217.63 411.996 214.071C414.39 212.87 416.842 211.63 418.524 209.474C418.568 209.416 418.622 209.352 418.657 209.301C418.98 208.876 419.25 208.432 419.503 207.985C419.766 207.49 419.981 206.986 420.158 206.466C420.297 206.055 420.41 205.647 420.482 205.199C420.51 205.097 420.523 204.992 420.545 204.88C421.065 201.354 419.467 198.387 418.675 196.905C416.045 192.04 414.366 188.934 414.289 185.755C414.245 183.88 414.72 181.088 417.468 177.592L417.445 177.579Z" stroke="#FF71E1" stroke-width="0.5" stroke-miterlimit="10"/>
<path d="M533.86 138.072C533.827 138.578 533.784 139.09 533.718 139.59C533.65 140.106 533.569 140.602 533.462 141.102C533.371 141.605 533.255 142.111 533.116 142.605C532.981 143.125 532.833 143.625 532.659 144.129C532.486 144.632 532.29 145.123 532.094 145.614C531.879 146.118 531.651 146.603 531.414 147.095C531.16 147.583 530.897 148.078 530.596 148.557C530.308 149.056 529.997 149.541 529.664 150.014C529.322 150.494 528.97 150.98 528.58 151.45C528.196 151.93 527.796 152.407 527.358 152.868C525.923 154.402 524.265 155.811 522.367 157.091C521.204 157.876 519.961 158.604 518.622 159.272C506.534 165.356 490.532 164.817 477.365 158.955C473.891 157.406 471.602 154.588 466.544 153.568C462.011 152.65 458.01 153.362 455.397 154.075C456.235 153.096 457.281 151.562 457.733 149.517C458.603 145.562 456.618 142.29 455.441 139.702C452.278 132.71 452.302 125.197 453.257 122.027C455.53 114.474 461.665 108.513 468.608 105.044C477.331 100.678 488.024 99.7458 498.265 101.783C508.506 103.821 518.284 108.834 525.194 116.321C531.491 123.146 534.312 130.865 533.844 138.069L533.86 138.072Z" stroke="#FF71E1" stroke-width="0.5" stroke-miterlimit="10"/>
</g>
<rect x="358" y="85.8619" width="89" height="27" rx="13.5" fill="#78C700"/>
<path d="M370.89 105.862H365.893V104.038V94.3859V92.5619H370.852C373.303 92.5619 374.842 93.9109 374.842 95.9059V96.0959C374.842 96.7039 374.728 97.1979 374.5 97.5969C374.044 98.3759 373.341 98.7939 372.752 98.9649V99.2689C373.037 99.3449 373.36 99.4969 373.702 99.7059C374.367 100.162 374.899 100.903 374.899 102.176V102.366C374.899 104.513 373.322 105.862 370.89 105.862ZM367.964 100.105V104H370.643C372.011 104 372.847 103.297 372.847 102.138V101.967C372.847 100.808 372.03 100.105 370.643 100.105H367.964ZM367.964 94.4239V98.2239H370.643C371.935 98.2239 372.79 97.5399 372.79 96.4189V96.2289C372.79 95.1079 371.954 94.4239 370.643 94.4239H367.964ZM380.206 105.862H378.154V92.5619H380.206V105.862ZM389.154 105.862H387.102V94.4239H383.017V92.5619H393.239V94.4239H389.154V105.862ZM400.432 106.128C397.183 106.128 395.15 104.247 395.15 100.77V97.6539C395.15 94.1769 397.183 92.2959 400.432 92.2959C403.624 92.2959 405.429 94.1959 405.429 97.2549V97.3689H403.396V97.1979C403.396 95.3929 402.427 94.1389 400.432 94.1389C398.399 94.1389 397.202 95.4309 397.202 97.6159V100.808C397.202 102.955 398.399 104.285 400.432 104.285C402.427 104.285 403.396 102.993 403.396 101.226V100.903H405.429V101.169C405.429 104.228 403.624 106.128 400.432 106.128ZM413.648 106.128C410.38 106.128 408.309 104.247 408.309 100.77V97.6539C408.309 94.1769 410.38 92.2959 413.648 92.2959C416.916 92.2959 419.006 94.1769 419.006 97.6539V100.77C419.006 104.247 416.916 106.128 413.648 106.128ZM413.648 104.285C415.757 104.285 416.935 102.974 416.935 100.846V97.5779C416.935 95.4499 415.757 94.1389 413.648 94.1389C411.596 94.1389 410.361 95.4499 410.361 97.5779V100.846C410.361 102.974 411.596 104.285 413.648 104.285ZM424.437 105.862H422.385V92.5619H424.437V105.862ZM430.192 105.862H428.159V92.5619H432.111L435.721 104.494H436.025V92.5619H438.058V105.862H434.106L430.496 93.9109H430.192V105.862Z" fill="black"/>
<rect x="310" y="243.862" width="87" height="27" rx="13.5" fill="#08FFD1"/>
<path d="M319.527 263.862H317.399L321.199 250.562H324.809L328.59 263.862H326.481L325.607 260.727H320.401L319.527 263.862ZM320.914 258.827H325.094L323.156 251.835H322.852L320.914 258.827ZM333.394 263.862H331.342V250.562H336.624C339.113 250.562 340.842 252.082 340.842 254.533V254.78C340.842 257.193 339.113 258.751 336.624 258.751H333.394V263.862ZM333.394 252.424V256.889H336.415C337.859 256.889 338.79 256.072 338.79 254.761V254.571C338.79 253.222 337.859 252.424 336.415 252.424H333.394ZM345.792 263.862H343.74V250.562H345.792V263.862ZM357.359 263.862H355.307V250.562H357.359V256.091H357.663L362.622 250.562H365.301L359.297 257.117L365.51 263.862H362.755L357.663 258.219H357.359V263.862ZM376.476 263.862H368.002V250.562H376.381V252.424H370.054V256.243H375.849V258.105H370.054V262H376.476V263.862ZM385.076 263.862H383.005V259.036L378.388 250.562H380.706L383.898 256.585H384.183L387.375 250.562H389.693L385.076 259.036V263.862Z" fill="black"/>
<rect x="552" y="178.862" width="68" height="27" rx="13.5" fill="#FF9100"/>
<path d="M564.89 198.862H559.893V197.038V187.386V185.562H564.852C567.303 185.562 568.842 186.911 568.842 188.906V189.096C568.842 189.704 568.728 190.198 568.5 190.597C568.044 191.376 567.341 191.794 566.752 191.965V192.269C567.037 192.345 567.36 192.497 567.702 192.706C568.367 193.162 568.899 193.903 568.899 195.176V195.366C568.899 197.513 567.322 198.862 564.89 198.862ZM561.964 193.105V197H564.643C566.011 197 566.847 196.297 566.847 195.138V194.967C566.847 193.808 566.03 193.105 564.643 193.105H561.964ZM561.964 187.424V191.224H564.643C565.935 191.224 566.79 190.54 566.79 189.419V189.229C566.79 188.108 565.954 187.424 564.643 187.424H561.964ZM577.132 199.128C573.978 199.128 572.059 197.342 572.059 194.302V185.562H574.13V194.359C574.13 196.24 575.213 197.285 577.132 197.285C579.051 197.285 580.134 196.24 580.134 194.359V185.562H582.186V194.302C582.186 197.456 580.153 199.128 577.132 199.128ZM587.866 198.862H585.814V185.562H587.866V198.862ZM600.044 198.862H591.589V185.562H593.641V197H600.044V198.862ZM605.914 198.862H602.38V197.038V187.386V185.562H605.914C609.467 185.562 611.405 187.348 611.405 190.977V193.466C611.405 197.095 609.467 198.862 605.914 198.862ZM604.451 187.443V197H605.933C608.232 197 609.334 195.822 609.334 193.523V190.901C609.334 188.564 608.232 187.443 605.933 187.443H604.451Z" fill="black"/>
<rect x="247" y="362.862" width="134" height="27" rx="13.5" fill="#FF70E0"/>
<path d="M259.89 382.862H254.893V381.038V371.386V369.562H259.852C262.303 369.562 263.842 370.911 263.842 372.906V373.096C263.842 373.704 263.728 374.198 263.5 374.597C263.044 375.376 262.341 375.794 261.752 375.965V376.269C262.037 376.345 262.36 376.497 262.702 376.706C263.367 377.162 263.899 377.903 263.899 379.176V379.366C263.899 381.513 262.322 382.862 259.89 382.862ZM256.964 377.105V381H259.643C261.011 381 261.847 380.297 261.847 379.138V378.967C261.847 377.808 261.03 377.105 259.643 377.105H256.964ZM256.964 371.424V375.224H259.643C260.935 375.224 261.79 374.54 261.79 373.419V373.229C261.79 372.108 260.954 371.424 259.643 371.424H256.964ZM275.609 382.862H267.154V369.562H269.206V381H275.609V382.862ZM283.01 383.128C279.742 383.128 277.671 381.247 277.671 377.77V374.654C277.671 371.177 279.742 369.296 283.01 369.296C286.278 369.296 288.368 371.177 288.368 374.654V377.77C288.368 381.247 286.278 383.128 283.01 383.128ZM283.01 381.285C285.119 381.285 286.297 379.974 286.297 377.846V374.578C286.297 372.45 285.119 371.139 283.01 371.139C280.958 371.139 279.723 372.45 279.723 374.578V377.846C279.723 379.974 280.958 381.285 283.01 381.285ZM296.687 383.128C293.438 383.128 291.405 381.247 291.405 377.77V374.654C291.405 371.177 293.438 369.296 296.687 369.296C299.879 369.296 301.684 371.196 301.684 374.255V374.369H299.651V374.198C299.651 372.393 298.682 371.139 296.687 371.139C294.654 371.139 293.457 372.431 293.457 374.616V377.808C293.457 379.955 294.654 381.285 296.687 381.285C298.682 381.285 299.651 379.993 299.651 378.226V377.903H301.684V378.169C301.684 381.228 299.879 383.128 296.687 383.128ZM306.958 382.862H304.906V369.562H306.958V375.091H307.262L312.221 369.562H314.9L308.896 376.117L315.109 382.862H312.354L307.262 377.219H306.958V382.862ZM321.966 383.128C318.717 383.128 316.684 381.247 316.684 377.77V374.654C316.684 371.177 318.717 369.296 321.966 369.296C325.158 369.296 326.963 371.196 326.963 374.255V374.369H324.93V374.198C324.93 372.393 323.961 371.139 321.966 371.139C319.933 371.139 318.736 372.431 318.736 374.616V377.808C318.736 379.955 319.933 381.285 321.966 381.285C323.961 381.285 324.93 379.993 324.93 378.226V377.903H326.963V378.169C326.963 381.228 325.158 383.128 321.966 383.128ZM332.237 382.862H330.185V369.562H332.237V375.262H337.823V369.562H339.875V382.862H337.823V377.124H332.237V382.862ZM344.743 382.862H342.615L346.415 369.562H350.025L353.806 382.862H351.697L350.823 379.727H345.617L344.743 382.862ZM346.13 377.827H350.31L348.372 370.835H348.068L346.13 377.827ZM358.61 382.862H356.558V369.562H358.61V382.862ZM364.366 382.862H362.333V369.562H366.285L369.895 381.494H370.199V369.562H372.232V382.862H368.28L364.67 370.911H364.366V382.862Z" fill="black"/>
<rect x="32" y="161.862" width="128" height="27" rx="13.5" fill="#DEFF1A"/>
<path d="M42.439 181.862H40.387V168.562H45.973C48.538 168.562 50.134 169.968 50.134 172.115V172.324C50.134 173.996 49.222 174.984 48.082 175.383V175.687C49.051 175.744 49.678 176.333 49.678 177.454V181.862H47.607V177.739C47.607 177.055 47.265 176.618 46.486 176.618H42.439V181.862ZM42.439 170.424V174.756H45.745C47.208 174.756 48.063 173.958 48.063 172.666V172.514C48.063 171.222 47.246 170.424 45.745 170.424H42.439ZM58.3389 182.128C55.0709 182.128 52.9999 180.247 52.9999 176.77V173.654C52.9999 170.177 55.0709 168.296 58.3389 168.296C61.6069 168.296 63.6969 170.177 63.6969 173.654V176.77C63.6969 180.247 61.6069 182.128 58.3389 182.128ZM58.3389 180.285C60.4479 180.285 61.6259 178.974 61.6259 176.846V173.578C61.6259 171.45 60.4479 170.139 58.3389 170.139C56.2869 170.139 55.0519 171.45 55.0519 173.578V176.846C55.0519 178.974 56.2869 180.285 58.3389 180.285ZM72.0731 182.128C68.8051 182.128 66.7341 180.247 66.7341 176.77V173.654C66.7341 170.177 68.8051 168.296 72.0731 168.296C75.3411 168.296 77.4311 170.177 77.4311 173.654V176.77C77.4311 180.247 75.3411 182.128 72.0731 182.128ZM72.0731 180.285C74.1821 180.285 75.3601 178.974 75.3601 176.846V173.578C75.3601 171.45 74.1821 170.139 72.0731 170.139C70.0211 170.139 68.7861 171.45 68.7861 173.578V176.846C68.7861 178.974 70.0211 180.285 72.0731 180.285ZM85.4786 181.862H83.4266V170.424H79.3416V168.562H89.5636V170.424H85.4786V181.862ZM96.6172 182.128C93.4822 182.128 91.4872 180.418 91.4872 177.511V177.036H93.5202V177.511C93.5202 179.392 94.7362 180.323 96.6172 180.323C98.5172 180.323 99.4862 179.449 99.4862 178.176C99.4862 177.758 99.3722 177.416 99.1442 177.15C98.6882 176.618 97.8332 176.352 96.6742 176.067L95.9712 175.896C95.1162 175.687 94.3942 175.44 93.7672 175.136C92.5132 174.547 91.7912 173.597 91.7912 172.058C91.7912 169.74 93.6342 168.296 96.3892 168.296C99.2962 168.296 101.215 169.797 101.215 172.514V173.198H99.1822V172.514C99.1822 170.842 98.1182 170.101 96.3892 170.101C94.7742 170.101 93.8242 170.804 93.8242 172.001C93.8242 172.4 93.9192 172.742 94.1282 172.989C94.5082 173.521 95.2682 173.825 96.4082 174.072L97.1112 174.243C97.9662 174.433 98.7262 174.68 99.3912 174.965C100.702 175.573 101.519 176.542 101.519 178.138C101.519 180.532 99.6002 182.128 96.6172 182.128ZM109.347 181.862H107.295V170.424H103.21V168.562H113.432V170.424H109.347V181.862ZM120.683 182.128C117.415 182.128 115.344 180.247 115.344 176.77V173.654C115.344 170.177 117.415 168.296 120.683 168.296C123.951 168.296 126.041 170.177 126.041 173.654V176.77C126.041 180.247 123.951 182.128 120.683 182.128ZM120.683 180.285C122.792 180.285 123.97 178.974 123.97 176.846V173.578C123.97 171.45 122.792 170.139 120.683 170.139C118.631 170.139 117.396 171.45 117.396 173.578V176.846C117.396 178.974 118.631 180.285 120.683 180.285ZM134.36 182.128C131.111 182.128 129.078 180.247 129.078 176.77V173.654C129.078 170.177 131.111 168.296 134.36 168.296C137.552 168.296 139.357 170.196 139.357 173.255V173.369H137.324V173.198C137.324 171.393 136.355 170.139 134.36 170.139C132.327 170.139 131.13 171.431 131.13 173.616V176.808C131.13 178.955 132.327 180.285 134.36 180.285C136.355 180.285 137.324 178.993 137.324 177.226V176.903H139.357V177.169C139.357 180.228 137.552 182.128 134.36 182.128ZM144.631 181.862H142.579V168.562H144.631V174.091H144.935L149.894 168.562H152.573L146.569 175.117L152.782 181.862H150.027L144.935 176.219H144.631V181.862Z" fill="black"/>
<defs>
<clipPath id="clip0_197_325">
<rect width="572.328" height="226.821" fill="white" transform="translate(0 320.075) rotate(-34.004)"/>
</clipPath>
</defs>
</svg>
